<?xml version="1.0" encoding="utf-8"?>
<!-- Generator: Adobe Illustrator 19.1.0, SVG Export Plug-In . SVG Version: 6.00 Build 0)  -->
<svg version="1.1" id="Layer_1" xmlns="http://www.w3.org/2000/svg" xmlns:xlink="http://www.w3.org/1999/xlink" x="0px" y="0px"
	 viewBox="0 0 461.4 205.5" style="enable-background:new 0 0 461.4 205.5;" xml:space="preserve">
<style type="text/css">
	.st0{fill:#FFFFFF;}
</style>
<g>
	<g>
		<path d="M138.3,121c-3.6-2.4-3.8-2.5-3.8-2.5c-0.6,0-1.5,0.3-2.5,0.8l-3.9,0.3l-0.8-1.9h0.1c-1.6-4.2-4.2-10.9-7.6-14.5l-0.5-2.7
			l-1.2-3.6h1c-2.3-1.4-9.3-12.9-11.8-19.2c-1.9-4.8-3-4.8-3.9-7l-1.2,1.9h0.3l-4,11.4c0,0-2.1,2.4-2.1,4.9c0,0.3,0,0.8-0.1,0.8
			c0,0-0.1,0-0.1-0.1c-1.2,1.5-2.1,3.4-3.3,6.4c0,0-2.9,6.3-4.2,12.1c-1.1,1.2-5,8.1-5,9.4l-9.4,4.3l-0.9-3.1h0.2
			c-1.6-4.5-4.4-12.9-7.6-15.7l-2.4-7.2h0.5c-1.6-1.8-4-4-4.8-6.3l-0.6-1.8c0-0.6-0.3-1-0.6-1.6l-1.2-1.9H57L51.3,74h0.3
			c-4.2-5.2-0.4-3.9-8.8-17.2L42,55.9c-1.5-3.6-4.3-8.1-6-8.8l-2.4-4.8l-0.6-2h0.1c-0.6-1-1.5-2.1-2.1-3.1h0.9l-1.8-0.9h0.2
			c-2.4-1-4.6-2.1-9.1-2.1L21,32.5h39.1l0.1,2.1l-4.6-0.1c0,0.3-0.3,0.8-0.4,1.4h0.1c-0.1,0.6-0.3,1.3-0.3,2.5
			c0,0.6,0.1,1.8,0.3,2.4l3.1,6.6c0.8,5.5,1.2,7,2.7,8.7l0.6,1.4h-0.5l3,3.3h-0.6c4.2,6.9,2,6.1,4.4,9.9l0.3,0.1h-0.3l0.9,2.1h-1.2
			c3,1.6,2.3,5.5,4.6,7.6l1.5,3.7l2.3,7h-0.5c3.1,3.6,5,6.4,6,8.7c0.9-3.4,2.9-6.8,3.6-7.5h-0.4l0.9-3.9l1.5-4.6l2.1-2.3
			c0,0-0.2-0.1-0.2-0.5c0-0.6,0.2-1.8,0.5-3.4c2.1-8.1,3-6.1,5.1-13.9l2.4-6H97c-0.1-0.9-0.6-1.8-0.8-2.7h0.5L93,49.9
			c-0.9-1.3-1.8-2.3-2.5-2.8l-1.2-1.2L85.9,37c-3.8-1.4-3.9-1.5-4-1.6l-1.4-0.8c-2.1,0-1-0.4-5.1-0.4l0.1-1.6h38.8v1
			c-0.8,0.4,0.1,0.6-2.7,1.5h0.3c-0.8,0.4-1.4,0.9-1.4,4.2c0,0.1,0.1,0.4,0.1,0.8l0.1,1h-0.3c2.1,3.1,2.4,6,3.1,7.6l-0.4,1.9l1,2.7
			h-0.1c0.9,1.8,1.3,2.7,1.6,4.3h-0.8l3.6,3l0.3,1.8h-0.3l0.9,1.9c0,1.5,2,5.1,2.3,5.4l1.8,3.4c0,0.8,0.3,3.6,2.9,7.2l4.3,11.1h-0.3
			l1.4,1.8h-0.1c1,1,1.2,1.2,1.2,1.3h-0.3c2.5,2.7,2.8,3.9,3,4.6h-0.1l0.5,1.4c1.6-5.4,1.9-4,5.5-16.5l0.3-1h0.3
			c0.7-1.5,0.4-6.6,4.3-8.1h-1.4c0.9-3.6,1.6-4.2,2.9-9.1h-0.5l0.9-2.5c1.8-5.2,5.1-10.3,6.3-12.3h-0.4c0.3-1.6,1.2-3.5,2.1-5.4
			h-0.1l0.6-1.4l-0.1-0.4c0.6-1.4,1-2.1,1.8-4.4h-0.1c0-0.4,0.3-1,0.3-1.5c-0.1-0.9-0.6-1.9-0.8-2.8h0.6c-1.5-0.1-2.9-0.8-3.9-1.5
			l-0.1-0.8c5.4-1,3.4,0.1,9.1-1.9c0.3,0.4,0.5,0.9,0.5,1h0.4c0.5,0,0.8-0.1,1.4-0.1l1.6,0.1c0.6,0.1,0.8,0.1,1.2,0.1
			c0.9,0,3-0.3,4.8-0.3c0.9,0,1.8,0,2.7,0.3c0.1,0,0.3-0.1,0.5-0.1l3.3-1.6l0.8,4c-0.3,0-2.6-0.6-4.5,1.8l-4.8,0.3h1.9
			c-2.7,4.9-5.2,8.4-5.2,11.2c0,0-2.7,7.9-4.9,10.2h0.4c-1,2.6-1.9,4-3,6.4h0.3c0,0-0.3,0.5-1,1.5h-0.3c-1.5,2.3-0.9,4.2-3.1,6.4
			h0.3l-1.4,2.9h0.1l-2.1,7.5l-0.9,1.6c-1,1.5-1.8,3-1.8,4.2h0.5c-3.8,6-4.4,7.6-4.4,7.6c-0.4,0.8-3.9,7.6-3.9,11.8l-1.6,2.7
			c-1.3,2.3-3.1,5-3.1,7.4L138.3,121z M53.8,61.4h0.6c0-0.8,0.1-2.3,0.1-3h-1.5l-0.4,5.8h3.9L53.8,61.4z M73.8,95h-2.1
			c0,0,0.2-0.1,0.3-0.1h-1.8l1.2,3h1.2c-0.1,0-0.3,0.1-0.3,0.1h1.5V95z M104.7,34.3h-2.9c0.6,0.3,1,0.3,1.4,0.4l1.9,0.3L104.7,34.3z
			 M104.8,37c0,0.3,0.4,0.3,1,0.3c0.1,0,0.3,0,0.3-0.3c0-0.3-0.3-0.8-0.7-1.6h0.1c-0.3,0-0.3-0.3-0.5-0.3c0.1,0.1,0.1,0.3,0.3,0.3
			h-1.2l0.1,1.5h0.6L104.8,37z M108.9,59.3h-0.3l0.7-1.2h-3.7l2.3,3.3h1V59.3z M127.8,98.2c0-1.1,0.3-2.1,0.3-3.1h-1.6
			c0,0,0.1-0.1,0.3-0.1h-1.4l1.2,3.3H127.8z M130.6,100.7c-1.4-0.8-2.7-1.8-4-2.5l0.9,2.5H130.6z"/>
	</g>
	<g>
		<path d="M186.3,178.2l-1,0.9l-12.7,1.3l-0.3-4.6l1.8-1.8h-0.6l0.4-4.6l-2.5-2.9l-2.4-6.7h0.6c-1.2-1.1-3.1-3.2-4.4-4.2l-0.6-2.7
			l-4.8-5.1c-8.5-0.3-18.1-0.9-26.5-1.5c-0.9-1-1.5-1.3-3.6-1.8c-7,11.5-3.6,8.5-12,25.5l3.1,4.6c2.1,2.5,3.8,4.8,3.9,5.5
			c-8.3-1-8.7-1.2-10.5-1.9h-6c-4.6,0.9-12.3,2.5-16.5,3.3c-0.3-2-0.5-3.3-0.5-3.5l1.6-1.8c5.4-0.5,7.3-2.8,10.3-4.7l2.7-1.6h-0.8
			c8.7-12.8,7.9-15,10.6-22.2l1.5-2c2.7-3.4,2.7-3.9,9.3-19.9c1.4-4.8,3-7.5,12.7-32.2l2-2.2h9c2.3,3.6,3.8,6.4,4.6,8.2
			c3.1,6.9,4.8,8.3,9.1,15.1c3.8,9.2,4.8,10,5.4,12.3h-0.8c4,3,2.5,5.3,4.6,6.5l1.5,3.3c0.8,1.6,1.6,3.6,2.5,6.7l3.4,5.1
			c4.5,6.7,11.4,18.1,17.8,24.4c6.9,0,7,2.6,7.9,4.5h2.4v2.4L186.3,178.2z M151,129.6l-0.6-3.8l-6.6-9.3c-0.1-1.8-0.9-2.3-1.6-2.3
			s-1.4,0.3-1.6,0.3c-0.9,0-3.6,15.1-5,15.1l-4.6,7.2l1.2,1c0.8,0.8,1.2,1.4,2,2c7.9,0,15.6-0.6,23.7-0.9c-1.3-1.4-2.3-2.5-2.5-5
			L151,129.6z M143.1,101.4c-0.6,0.6-0.9,0.9-0.9,1h1.5l1.6-1H143.1z M149.1,99.4l-0.9-0.8l1.2-1.2h-3.3c0.1,0.3,1,0.3,1.8,0.3
			l-0.6,0.2c0,0.2-0.3,0.3-0.3,0.5h0.6l-0.3,1c-0.4,0.3-2.3,1.2-2.1,1.2l2.7,0.1L149.1,99.4z M152.4,105.3H150l3.1,0.8L152.4,105.3z
			 M155.5,108.4l-3.3-1.8l0.5,1.1c1.4,1.2,1.9,1.6,2.5,1.8L155.5,108.4z M155.2,110.8l-0.5-1l-1.6,2c1.1,0,2.9-0.6,3.8-0.9H155.2z
			 M169.2,151.3l-0.7-0.1l-2.6,0.3l-0.6,0.9h3.9V151.3z M169.6,145.9c-2.1-2.4-1.9-2.5-1.9-2.5h-1.5l0.6,0.9l0.4,1.7H169.6z
			 M170.7,149.7c-0.6,0-1,0.3-1.3,0.3h0.9l-1.8,1.2l4,0.6L170.7,149.7z"/>
	</g>
	<g>
		<path d="M215.6,76.4l-0.7,0.1c-0.1,0-0.1,0.1-0.2,0.1c-0.5,0.1-0.9,0.2-1.5,0.1c-3,0-6.3-1.3-8.4-2.2c-0.7-0.4-1.4-0.6-1.7-0.6
			l-4-3.7l-0.8-1.9c-0.1-0.1-0.2-0.3-0.2-0.4l-0.3-0.4l-0.5-0.6l-0.3-0.4c-0.3-0.4-0.6-0.8-0.9-1.3l-0.6-2.4c-0.2-0.2-0.8-0.7-1-1
			l-0.9-0.9v0.1c-1.6,0-3.2-0.1-4.7-0.1V61l-0.6,1.6c0.1,0.3,0.3,0.7,0.4,0.9v-0.1l0.2,0.6c-0.4,0.6-0.6,1.5-0.6,2.4l0.6,0.5
			l0.6,6.6l1,0.6l1.8,1.1l0.4,1.7h-0.3c-0.1,0-0.1,0-0.2-0.1v0.1h-0.6c-0.8,0-1.9,0-2.6-0.1c-0.2,0-0.6-0.1-0.9-0.1h-1.6
			c-0.3,0-0.6,0.1-0.9,0.1c-0.9,0.1-2.5,0.1-3.8,0.1h-1.4c-0.1,0-0.1,0.1-0.3,0.1l-0.2-2.3c0.2-0.1,0.7-0.4,2.6-1.1
			c0.1-1.8,0.4-3.7,0.5-5.5v-2c0-2,0-4.2-0.5-6.5v-0.1l0.1,0.1c-0.1-0.9-0.1-2.3-0.1-3.1v-0.1l0.3,0.6v-0.1h2.7v-0.4l-3-0.3V53
			c-0.3-0.7-0.6-2.1-0.6-3c0.3-0.4,0.5-0.9,0.6-1.6c0.3-0.1,0.9-0.1,1.2-0.1l0.4,0.5l0.3,0.9v0.1h0.1l-0.1-0.1
			c0-0.1,0.1-0.1,0.1-0.1l-0.1-0.4l0.9-0.3l0.3-0.1v-0.6l-0.9-0.9c-0.4,0-0.7,0.1-1,0.2c-0.1,0-0.4,0.1-0.4,0.1l-0.8,0.2v0.4
			c-0.1-0.4-0.6-1.6-0.9-2.4l-0.9-2.8V43c-2.4-0.4-3.2-0.6-3.9-1.1v-1.4c0.6-0.2,1.4-0.4,1.9-0.5c0.1,0.1,0.3,0.3,0.4,0.3l0.6,0.1
			c1.4,0,2.7,0.1,4,0.1c0.4,0,1.4,0.1,1.8,0.1h6.6l5,0.1l6.3,3.6l0.4,1.6l0.2,0.9l0.5,1.8v4.8c-0.3,0.4-0.9,1.7-1.3,3l-0.8,0.2
			l-3.2,2.7c0,0.3-0.1,0.6-0.1,0.9c0.3,0.4,0.6,0.9,0.9,1.2l1.4,1.9c0.2,0.6,0.4,1.4,0.5,2.1l7.8,7.3v-0.1l1,0.5
			c0.6,0.2,1.9,0.8,2.6,1.2l0.4,0.2l6-0.2c0.1-0.1,0.4-0.1,0.4-0.1v0.9L215.6,76.4z M184.1,60.4v0.1c-0.4-0.1-1.2-0.4-1.7-0.5v0.4
			l0.3,0.4l0.3,0.4v-0.1h1.3L184.1,60.4z M183.1,49.7v-0.1c-0.1,0.4-0.3,0.6-0.4,0.9l1.3-0.2c0,0,0.1-0.2,0.2-0.6H183.1z M184.9,53
			c0.1-0.3,0.3-0.6,0.4-1L185,52c-0.3,0.1-0.7,0.2-0.9,0.4V53c0,0.1,0,0.1,0.1,0.1v0.3C184.4,53.2,184.8,53.1,184.9,53L184.9,53z
			 M184.8,62.2L184.8,62.2c-0.3,1-0.5,1.4-0.6,1.5c0,0-0.1-0.1-0.1,0.1h1.2L184.8,62.2z M186.5,68.4c-0.4,0-0.9-0.1-1.3-0.1v-0.1
			l-0.3,0.3v0.2c0,0.1,0.1,0.1,0.1,0.2v0.4l1.5-0.3V68.4z M197.4,56.1c0.5-1.8,0.9-2.5,1.1-2.9v-5l-0.3-0.8
			c-0.4-0.8-1.7-2.3-5.2-4.5c-1.6,0-4,0.1-5.6,0.1V43c-0.1,0.5-0.2,5.1-0.2,7.1c0.1,0,0.2,0.1,0.2,0.1c0,0.1,0.1,0.2,0.3,0.2
			l0.8,7.8l1.8,0.5l3.8-0.7L197.4,56.1L197.4,56.1z M199.7,50L199.7,50l-0.6,0.4c-0.1,0.1-0.3,0.1-0.1,0.1h0.4l0.6-0.4H199.7z
			 M202,49.2c0.1-0.4,0.1-0.4,0.1-0.5c-0.1-0.1-0.3-0.1-0.5-0.1c-0.1,0-0.2-0.1-0.3-0.2l-0.6,0.5c0.1,0.1,0.2,0.2,0.3,0.2l-0.5,0.6
			l-0.4-0.1v0.4l-0.1,0.1h0.1v0.1l0.6-0.4h-0.1c0.1-0.1,0.4-0.1,0.4-0.1c0.1-0.1,0.4-0.2,0.6-0.4l0.3-0.2V49.2z M200.2,49.9
			L200.2,49.9l0.2-0.1L200.2,49.9z M200.7,49.7l-0.1-0.1L200.7,49.7z"/>
		<path d="M242.6,76.9c-14.5,0.1-18.7,0.1-21,0.1c-2.5,0-2.5-0.4-2.5-0.7l2.2-1.8V69c0-2.7,0.1-5.7,0.1-8.8V58
			c-0.1-0.1-0.3-0.5-0.3-0.6l-0.3-0.6l-0.6-14.1c-0.6-0.6-1.9-1.7-2.6-1.9v-0.3c1.5,0,3.2-0.1,4.4-0.1h1.2l1.2,0.5
			c5.1,0,13.2-0.1,17.1-0.5l0.4,0.2c0.3,0.2,0.6,0.3,1,0.4l-0.3,1.6l1.2,4.8c-1.6,0-2.7-0.4-3.4-2.8c-0.6-0.2-0.9-0.4-4-0.4h-8.1
			c-0.8,1.7-1.8,3.3-2.7,4.9l0.3,1.2c0.1,0.7,0.6,2.4,0.7,2.6c0,1.4-0.2,1.7-0.2,3.3c-2,0.6-2.3,0.7-2.6,1.9l-0.4,0.6
			c2.7,0.3,3.2,0.3,3.2,0.3c0.6-0.5,2.4-1.9,4.6-2.1h3.6l0.6-0.6l1.4-0.3c0.3,0,0.6-0.3,0.9-0.3c0,3.2,0.2,5.7,0.2,6.3v1.2
			c-1.9-0.6-2.6-2.1-2.7-3.2c-2.2,0.1-3.9,0.2-4.7,0.6l-3.7-0.2c0.1,1.2,0.3,6.9,0.3,10.3l-0.6,0.9c0.2,0.9,0.4,1.7,0.4,1.7l0.6,0.2
			c1.2,0.5,3.2,1,5.2,1.2c1.4-0.4,3.1-0.9,4.6-0.9l2.2-0.1l3.4-2.4l0.4-0.1l0.9-0.9l1.1-0.7h1.6c0,0.1,0.1,0.1,0.4,0.2l-1.2,3.3
			l-1.2,1.3c0,1.3-1,1.8-1.7,2.1L242.6,76.9z"/>
		<path d="M270.6,77.8c-0.2,0-0.5,0.1-0.7,0.1c-1.8,0.3-3.7,0.5-5.6,0.5h-0.9c0.5-2.1,0.8-2.7,1.1-3l0.3-24.1c0-0.1-0.1-0.1-0.1-0.2
			l-0.5-4.9l-2.8-2.9v0.1h-5.6v0.3c-0.5,0-0.9-0.1-1.2-0.1H254c-0.4,0.1-1.2,0.1-1.5,0.1l-1.9,0.6v-0.1l-2.2,1.9l-0.2,0.1
			c0.5-1.2,1.7-3,1.7-3l1.4-3.2c0.2-0.2,0.6-0.2,0.9-0.2c0.2,0.1,0.4,0.6,0.4,0.6h33.1l0.5-0.3v0.7c-0.3,0.6-1,1.7-1.2,1.9l-0.4,0.5
			l-0.1,1.1c0,0.1-0.1,0.4-0.6,0.8v-0.1l-0.2,0.5c-0.1,0.1-0.1,0.3-0.1,0.4c0,0.1-0.1,0.1-0.1,0.4v0.3l-0.3-2.8L270.7,45
			c-0.1,7.4-0.1,15-0.1,22.3l0.6,3.1c-0.4,1.1-0.6,3.3-0.6,5c0.1,0.4,0.6,1.2,0.8,1.5l0.7,0.7L270.6,77.8z M266.9,66.3
			c-0.4,0-1.1-0.1-1.5-0.1v-0.1l-0.2,0.3c0,0.1,0.1,0.1,0.1,0.2v0.6l1.4-0.2c0-0.1,0.1-0.4,0.1-0.4L266.9,66.3z M268.6,48.1
			l-0.2-0.2l-0.4-1.1v0.1l-2.1-0.7v0.1c0.1,0.2,0.5,0.6,0.6,0.7l0.4,0.4l0.3,1.4h-0.6v0.2l0.6-0.2l1.9-0.2c0,0-0.1-0.1-0.1-0.1
			L268.6,48.1z M268,67.9c-0.4,0-0.9,0.1-1.2,0.1v-0.1l-0.8,0.9c0.1,0.2,0.1,0.4,0.1,0.7c0.6-0.4,1.4-0.9,1.9-1.2V67.9z M267.4,50.7
			c0-0.1,0.1-0.3,0.1-0.3s-0.1,0,0-0.1c-0.4,0-0.9,0.1-1.1,0.1l-0.1,0.4c0,0.1,0.1,0.1,0.1,0.2c0.1,0,0.3-0.1,0.4-0.1L267.4,50.7z
			 M267.2,54.8c0.1-0.1-0.4,0.2-0.6,0.4h0.5c0.1,0,0.4-0.1,0.6-0.4H267.2z M268.4,63L268.4,63c-0.3,0.1-0.9-0.1-1.7-0.6
			c0.1,0.4,0.1,0.4,0.4,0.8l0.5,0.8v-0.1h1.1c0-0.1,0-0.1-0.1-0.2L268.4,63z M269.6,59.2l-2.8-0.3l0.4,0.9v-0.1h2.4V59.2z M267.2,49
			v1.2c0.1,0,0.4,0,0.4-0.1c0.1,0,0.1-0.1,0.3-0.1L267.2,49z M269.4,53.8c0.1-0.4,0.1-0.4,0.3-0.6c-0.2-0.1-0.3-0.1-0.4-0.1
			c-0.1,0-0.3-0.2-0.4-0.4l-0.5,0.6l0.2,0.3l-0.4,0.7h0.2v0.1c0.1-0.1,0.1-0.1,0.2-0.1L269.4,53.8L269.4,53.8z M269.6,66
			c-0.1-0.3-0.3-0.7-0.4-1.1c-0.1,0.3-0.5,0.8-0.4,0.7v0.1l-0.3,0.3H269.6z M270.1,51.4c-0.1,0-0.1-0.1-0.4-0.1l-0.3,0.1v-0.1
			l-0.5,0.4l-0.2,0.2h0.4L270.1,51.4z M269.9,53l-0.2,0.2c0.1,0.1,0.1,0.1,0.2,0.1V53z M271.2,42.7c-0.1-0.1-0.1-0.4-0.1-0.6
			l-1.4,1.4l0.2,0.6L271.2,42.7z M270.2,51.4L270.2,51.4L270.2,51.4L270.2,51.4z M271.3,42.7L271.3,42.7c-0.1,0.1,0,0.1,0,0.1V42.7z
			 M273.5,43.9l-2,0.1l0.5,0.3c0.3-0.1,1.2-0.1,1.5-0.1V43.9z M274.7,40.9V41l-1,0.9l0.4,0.7v-0.1l0.9-0.7L274.7,40.9z"/>
		<path d="M320,75.9c-2.1,1-4.9,1.6-6.6,1.9l-1.9,0.4l-9.5-0.8l-1.3-0.6c-0.5,0-0.8-0.3-0.9-0.3l-2.8-0.9l-4.1-3.7
			c0,0-0.2-0.2-0.3-0.4l-0.3-0.3c-0.6-0.6-1.3-1.3-2.2-2.4l-0.3,0.1l0.1-0.6c-0.3-0.9-0.6-1.5-0.9-2.1c-0.7-1.6-0.1-1.4-1-4.2v-7.4
			c0.6-1.2,0.3-1.5,2.1-5.7c0.4-0.6,0.8-1.4,0.8-2.2l3.7-3.9c1.9-0.7,4-1.7,5-2.2l1.5-0.7c2.7,0,6.3-0.2,9.4-0.4h0.5
			c5.1,0.4,5.7,0.4,6.8,0.9l1.4,0.3c0.3,0.1,0.9,0.1,1.3,0.1l0.4,0.4l1.3,5.5c0.1,0.4,0.1,0.7,0.1,0.9c-0.2,0.1-0.4,0.2-0.6,0.2
			l-0.7,0.2c0-0.3-0.1-0.6-0.1-0.9L317,43c-1.9-0.6-2.6-0.7-4-0.7c-7.8,0-10.3,1.9-12.2,3.4l-1.2,0.2c-0.4,1-3,4.2-3.7,9.8
			c-0.6,0.9-0.9,2.4-0.9,4.2l-0.2,1.8c0.3,1.7,1.1,2.4,1.6,4.4l4,6.3c0,0.1,0,0.2,0.1,0.4l0.1,0.4c0.1,0,0.9,0.4,1.2,0.4l2.3,0.9
			c0.6,0.4,2,0.6,2.5,0.9c2.3,0.4,1.7,0.3,3.5,0.6c3.2-0.9,4.9-1.6,5.8-2l1.3-0.3l1.2-1.2c0.8-1.1,1.4-2.1,1.7-2.8
			c3.8,0,2.4,0.9,3,1.7c-0.4,1.2-0.7,2.3-0.7,4L320,75.9z M293.8,65.5h-3.7l0.2,1.3c0.4,0.1,0.9,0.3,1.4,1.1c1.7-0.6,1.7-1.2,1.9-2
			L293.8,65.5z M290.5,54.7c0.7,0,0.9,0,1.9,0.5c0.5,0,0.8-0.1,0.9-0.1c0-0.8-0.4-0.6-0.6-1.4c-1.4,0-1.3,0.4-2.2,0.4V54.7z
			 M293.3,62c-0.3-0.1-0.4-0.1-0.6-0.1l-2.2-0.1c0.1,0.2,0.3,0.6,0.3,0.9h2.5V62z M292.1,56.5c0,0.1,0-0.4,0.2-0.6
			c-0.2,0.1-0.5,0.1-0.7,0.1c-0.1,0-0.4,0-0.4-0.1c-0.1,0.3-0.3,0.6-0.4,0.9L292.1,56.5z M293.3,58.1L293,58c-0.1,0-0.1,0.1-0.2,0.1
			l-0.3,0.1c-0.1,0.1-0.3,0.2-0.4,0.2v1c0.6-0.5,0.6-0.6,0.7-0.6s0.1,0.1,0.2,0.1L293.3,58.1z M296.8,69.2c-0.5-0.1-1.3-0.5-1.8-0.7
			c0.1,0.5,0.4,0.8,0.9,1.4h1.2L296.8,69.2z M295.8,45.3l-0.6,0.5h0.4l0.7-0.5H295.8z M298.4,43.9c-0.4-0.3-0.6-0.1-0.9-0.5
			l-0.6,0.6l0.6,0.6H297c-0.1,0-0.3,0-0.4-0.1c0,0.1-0.1,0.1-0.1,0.2c0,0,0.1,0.1,0.3,0.1c0.3-0.3,0.6-0.1,0.9-0.5l0.3-0.1
			L298.4,43.9z M297.7,71.2l-0.6,0.7c0,0-0.1,0.1-0.3,0.4l1.1-0.1L297.7,71.2z M300.6,41.4c0,0.2,0.1,0.6,0.1,0.7
			c0.2,0,0.6-0.1,0.7-0.1l0.4-0.1c0-0.1,0.1-0.3,0.2-0.4H300.6z M302.8,42.5c-0.3,0.1-0.5,0.2-0.8,0.2c-0.1,0-0.2-0.1-0.3-0.1
			l-0.6,0.8c0.1,0.1,0.1,0.3,0.1,0.4l1.6-0.9V42.5z"/>
		<path d="M366.1,76.5c-0.1,0-0.1,0.1-0.2,0.1c-0.1,0.1-0.3,0.1-0.5,0.1c-0.8,0-1.8-0.1-2.5-0.1c-0.1,0-0.4-0.1-0.5-0.1
			c-0.4-0.1-0.8-0.1-1.1-0.1c-0.1,0-0.4,0-0.9,0.1c-0.1,0-0.4,0-0.6,0.1c-0.1,0-0.2,0.1-0.4,0.1l-0.2-0.1c-1.1,0.4-2.1,0.7-3.3,0.7
			l-0.4-0.1c-0.1-0.1-0.2-0.2-0.2-0.4c-0.4-0.4-0.6-0.8-0.8-1.4l1.3-0.1l1.7-0.1v0.1l1.9-2v-13c-0.1,0-0.4,0.1-0.5,0.1
			c-0.1,0.1-0.3,0.1-0.4,0.1h-2.2l-1.7-0.3l-2.1,0.2l-1.5-0.2l-1.7,0.3H346l-1.9-0.2h-3l-0.9,0.2l-1.9-0.1v1.6l-0.6,2.6
			c0,0.1-0.1,0.1-0.1,0.3v0.4c0,0.4,0.1,0.7,0.1,1.1c0,0.1,0.1,0.1,0.1,0.3c0.1,0.3,0.1,0.7,0.1,0.9c0,0.3-0.1,0.6-0.2,0.7
			c0.6,3,0.9,5,0.9,7.1l-0.1,0.8l-1,0.3c-2.4,0.1-4.7,0.4-7.3,0.7c-0.6,0-0.6-0.6-0.7-1.3c0-0.2,0-0.3,0.4-0.9
			c0.3-0.2,0.4-0.2,1.8-0.8v0.1l0.2-0.9v-0.8c0-0.4,0.1-1.2,0.1-2.7v-3l-0.1-1.3v-4.1c0-0.2,0.1-0.5,0.1-0.8v-1.2
			c0-0.1-0.1-0.4-0.1-0.6c0-0.6,0.1-1.4,0.1-1.7v-0.4l-0.2-1.7c0-0.1-0.1-0.2-0.1-0.3c-0.1-0.5-0.3-2-0.3-3.2
			c-0.1-0.1-0.2-0.4-0.2-0.5c0-0.6,0.1-1.3,0.4-1.9c0-0.1-0.1-0.1-0.1-0.3c-0.1-0.5-0.3-1.4-0.3-2.1c0-0.2,0-0.8,0.1-1.1
			c-0.1-0.4-0.3-0.9-0.4-1.2v0.1c-0.1,0-0.1-0.1-0.1-0.1l-0.6-0.6v0.1c-0.1,0-0.3-0.1-0.4-0.1c-0.1-0.1-0.2-0.1-0.6-0.5l-0.5-0.4
			l-0.7-1.9h8l0.6-0.1l4.1,0.3l-0.9,2.4l-0.9,1.2l-1.2,1.6v5.2l0.5,1v3.2l0.1,1.5h8.3l1.1,0.1l2-0.1h6.6l1.4,0.1l1.6-0.1v-2.8
			l-0.2-0.6l-0.4-0.5l-0.1-3.2l-0.2-0.9V47l0.1-0.9l-0.5-3.6c-0.4-0.1-0.7-0.1-1-0.3l-1-0.3l-1.4-0.6l0.1-0.7
			c0.3,0.1,0.9,0.1,1.6,0.1c0.7,0,1.2,0,1.7-0.1l1.2,0.1h3.5l0.7,0.6c0.4-0.1,0.9-0.2,1.2-0.4c0.4-0.1,0.6-0.2,2.4-0.2h0.4
			c0.1,0,0.1,0.1,0.2,0.1h0.3c0.4,0,0.7-0.1,1.1-0.2V41l-1,0.7c-0.3,0.1-0.6,0.1-1.1,0.5v-0.1l-0.8,1l-0.2,0.4
			c-0.1,0.1-0.1,0.2-0.1,0.2c-0.1,0.6-0.4,1.8-0.6,2.7v2.4l-0.2,2.2c0.4,0.2,0.6,0.8,0.6,0.9c0,0.3-0.1,1-0.1,1.4
			c0,0.1-0.1,0.4-0.1,0.5V54c0,0.1-0.1,0.1-0.1,0.3v0.5c0,0.3-0.1,0.6-0.1,0.9v0.8c0,0.3,0,0.6,0.1,1.1v-0.1l0.4,1.1V65l-0.5,1
			l0.1,0.6l-0.1,3.2c0,0.1-0.1,0.3-0.1,0.4v0.3l0.1,2.3l0.2,1.2l0.3,0.4l0.4,0.3V76.5z M335.7,52.6c0-0.2,0-0.6,0.1-0.9
			c0-0.2,0.1-0.6,0.1-0.8c-0.4,0-1-0.1-1.4-0.1v-0.1l-0.4,0.4l-0.3,1l-0.3,1.5c0.2,0,0.6,0,0.9-0.1c0.3,0,0.6-0.1,0.9,0
			c0-0.2,0.1-0.2,0.1-0.4L335.7,52.6z M335.2,59.3l-1.2-0.2c0,0.1,0,0.1,0.1,0.4c0.1,0.1,0.1,0.2,0.1,0.4c0.5-0.1,1.1-0.2,1.6-0.4
			L335.2,59.3z M334.2,63L334.2,63L334.2,63z M334.3,63L334.3,63c0.1,0.1,0.3,0.2,0.4,0.2L334.3,63z M337,63c-1.7,1.8-1.9,2-2.3,3
			c0,0-0.1,0.1-0.1,0.1c0.1,0,0.4,0.1,0.6,0.1l0.7,0.1v0.1L337,63z M334.7,63.1L334.7,63.1L334.7,63.1L334.7,63.1z M362.5,64.8
			L362.5,64.8c-0.4,0.1-0.6,0-0.6,0s-0.1,0.1-0.2,0.1h-0.4c-0.1,0-0.2,0-0.4-0.1v0.6l1,0.1L362.5,64.8c1,0.2,1.2,0.4,1.6,0.5
			c0.1-0.1,0.1-0.1,0.3-0.1c-0.2-0.2-0.3-0.4-0.5-0.5C363.5,64.8,362.8,64.9,362.5,64.8L362.5,64.8z M364,67.1l-1.4,0.7l-0.4-0.1
			v-0.1l-0.9,1.1l-0.4,1.2l2.4-0.4c0-0.1,0-0.3,0.1-0.4c0-0.1,0.1-0.4,0.1-0.6L364,67.1z M361.9,62.3h-0.4c0.1,0.1,0.2,0.3,0.4,0.4
			c0.1,0,0.2,0.1,0.3,0.1h0.2c0,0-0.1-0.1-0.1-0.1L361.9,62.3z"/>
		<path d="M398.1,76.9c-14.5,0.1-18.7,0.1-21,0.1c-2.5,0-2.5-0.4-2.5-0.7l2.2-1.8V69c0-2.7,0.1-5.7,0.1-8.8V58
			c-0.1-0.1-0.3-0.5-0.3-0.6l-0.3-0.6l-0.6-14.1c-0.6-0.6-1.9-1.7-2.6-1.9v-0.3c1.5,0,3.2-0.1,4.4-0.1h1.2l1.2,0.5
			c5.1,0,13.2-0.1,17.1-0.5l0.4,0.2c0.3,0.2,0.6,0.3,1,0.4l-0.3,1.6l1.2,4.8c-1.6,0-2.7-0.4-3.4-2.8c-0.6-0.2-0.9-0.4-4-0.4h-8.1
			c-0.8,1.7-1.8,3.3-2.7,4.9l0.3,1.2c0.1,0.7,0.6,2.4,0.7,2.6c0,1.4-0.2,1.7-0.2,3.3c-2,0.6-2.3,0.7-2.6,1.9l-0.4,0.6
			c2.7,0.3,3.2,0.3,3.2,0.3c0.6-0.5,2.4-1.9,4.6-2.1h3.6l0.6-0.6l1.4-0.3c0.3,0,0.6-0.3,0.9-0.3c0,3.2,0.2,5.7,0.2,6.3v1.2
			c-1.9-0.6-2.6-2.1-2.7-3.2c-2.2,0.1-3.9,0.2-4.7,0.6l-3.7-0.2c0.1,1.2,0.3,6.9,0.3,10.3l-0.6,0.9c0.2,0.9,0.4,1.7,0.4,1.7l0.6,0.2
			c1.2,0.5,3.2,1,5.2,1.2c1.4-0.4,3.1-0.9,4.6-0.9l2.2-0.1l3.4-2.4l0.4-0.1l0.9-0.9l1.1-0.7h1.6c0,0.1,0.1,0.1,0.4,0.2l-1.2,3.3
			l-1.2,1.3c0,1.3-1,1.8-1.7,2.1L398.1,76.9z"/>
		<path d="M436.6,70.7L436.6,70.7c-0.1,0-0.1,0.1-0.1,0.2l-0.4,1.2c-0.3,0-1,0.3-1.4,0.6l-0.6,0.5v-0.1c-0.2,0.2-0.4,0.3-0.8,0.4
			v-0.1c-0.3,0.4-0.8,0.8-1.1,1.2c-1.1,0.2-1.1,0.2-1.7,0.9c-3.2,1.1-3.2,1.1-3.5,1.4l-20,0.1v-2.8l1.1-0.1v0.1l1.1-1.7
			c0,0-0.1-0.1-0.1-0.2c-0.1-0.1-0.1-0.2-0.1-0.3c-0.1-0.2-0.2-0.7-0.2-1.4l0.3-0.2v-1.2c0-0.1-0.1-0.1-0.1-0.2v-4.4l-0.2-0.2V54
			c0.4-1.2,0.4-1.5,0.6-4.5c-0.1-0.1-0.1-0.2-0.1-0.4l0.4-1c0-0.6-0.1-1.9-0.1-2.3l-0.3-3.3l-0.3-0.7v0.1h-0.6v-2.1h3.2
			c0.6,0,1.2-0.1,1.8-0.1h1.7l0.8-0.3c0.8,0.3,0.8,0.3,1.7,0.3l1.1-0.3h6.1c0.1,0.1,1,0.5,1.4,0.5l2.4,0.9c0,0,0.1-0.1,0.2-0.1
			c0.1-0.1,0.4-0.1,0.5-0.1c1.2,0.4,1.8,0.7,2.2,0.9c0.1,0.1,0.2,0.1,0.3,0.1l0.6,0.2l1.5,1.7c0.2,0.1,0.6,0.6,0.6,0.6l2,1.5l1,1.9
			l0.5,0.8l0.9,0.8l0.6,1.2c0.1,0.8,0.2,1.5,0.3,2c0.1,0.3,0.1,0.8,0.1,0.9c0.1,0.6,0.1,1.2,0.1,1.5l0.1,0.1v1.8
			c0,0.2,0.1,0.4,0.1,0.6c0,0.3-0.1,0.6-0.1,0.9V61h-0.5c-0.1,0-0.1,0.1-0.2,0.1h-0.4v0.1c0,0.2,0.1,0.4,0.1,0.6v0.4l0.5,0.6v-0.1
			c0.1,0,0.4,0.3,0.4,0.3c0,1.1-0.1,1.4-0.2,1.8l-0.3,0.6c0,0.1-0.1,0.2-0.1,0.3V66l-0.9,1.2c0,0.7-0.2,1.4-0.4,1.7
			c-0.1,0.2-0.3,0.6-0.4,1.5L436.6,70.7z M410.5,49.6l-0.6-0.1v0.3c0.1,0.1,0.2,0.1,0.3,0.1c0,0,0.1,0.1,0.3,0V49.6z M411.4,48.9
			l-0.3,0.3v0.1l0.3-0.2V48.9z M411.5,66.4C411.5,66.4,411.5,66.4,411.5,66.4L411.5,66.4L411.5,66.4z M411.8,48.8h-0.3V49h0.3V48.8z
			 M412.8,58.9l-0.7-0.2v-0.1c-0.1,0.1-0.1,0.1-0.1,0.4l0.1,1.2c0.1,0.3,0.1,0.6,0.1,0.9L412.8,58.9z M431.1,68.4
			c0-0.1,0.1-0.2,0.1-0.3l0.6-0.8l0.1-0.2c0-0.1,0.1-0.4,0.1-0.4l0.3-0.4v0.1l0.2-1l0.9-0.8c0-0.1,0-0.4,0.1-0.4v0.6
			c0,0.6,0,0.4,0.6-2.4l0.5-2.7l0.4-0.1v-3.5l-0.3-0.2l-0.4-1.9l-1.2-4c-0.5-0.7-1.2-1.8-1.4-2.4l-0.5-1v0.1c-0.2-0.1-0.4-0.3-1.1-1
			v0.1l-1.1-0.9l-0.4-0.3l-0.8-0.6v0.1c-0.7-0.4-1.5-0.9-1.7-0.9l-1.4-0.5c-0.3,0-0.9-0.1-0.9-0.2v0.1l-0.9-0.2l-0.4-0.3v0.1h-3.8
			c-0.8,0.3-2,0.9-2.2,1.2l-0.4,0.1v-0.1l-0.4,0.2l-0.3,0.2c0,1.7-0.1,4.9-0.1,6.8c-0.1,1.4-0.1,2.7-0.1,3.9c0.1,2.7,0.3,5.3,0.3,8
			c0,2.5-0.1,5-0.3,6.6v0.3c-0.1,0.6-0.1,1.2-0.1,1.5v0.9c-0.1,0.1-0.1,0.4-0.1,0.6l0.5,0.3c0,0.1,0.1,0.2,0.4,0.2l0.6,0.4
			c0,0,0.8,0.4,0.9,0.6v-0.1c0.6,0,2.1,0,2.4-0.1h1.4c0.1,0,0.1-0.1,0.2-0.1l1.3,0.1v0.1l0.7-0.7l0.6-0.2l0.7-0.3l0.9-0.5l1.1-0.2
			v0.1c1-0.9,1.4-1.3,1.6-1.4l0.3-0.1c0,0,0.1-0.1,0.2-0.2c0.4-0.2,0.9-0.6,0.9-1.2l1.1-0.1L431.1,68.4z M428.7,73.5
			c0.2-0.2,0.1-0.3,0-0.3v0.1h-0.1v0.1h0.1V73.5z M428.7,73.3L428.7,73.3L428.7,73.3L428.7,73.3z M436,65.8l0.7-0.4v0.1
			c0-0.1,0.1-0.1,0.1-0.4c0-0.1-0.1-0.1-0.1-0.4l-0.6,0.8c-0.6,0.4-0.6,0.8-0.6,1.3c0,0.1-0.1,0.3-0.1,0.4v0.5l-0.4,0.2
			c0.2,0.1,0.3,0.1,0.5,0.1L436,65.8z M436.6,61.2c0-0.1,0.1-0.1,0.1-0.1h-0.1L436.6,61.2c-0.1,0.1-0.1,0.1-0.1,0.1
			c0.1,0.3,0.1,0.8,0.1,1.3l0.1,0.2c0.2-0.1,0.4-0.1,0.8-0.1L436.6,61.2z M437.8,59.8c-0.1,0.1-0.2,0.3-0.4,0.4
			c-0.1,0.1-0.3,0.4-0.6,0.7l-0.1,0.1l2.1-0.4c-0.1,0-0.2-0.1-0.3-0.1L437.8,59.8z M437.5,54.1L437.5,54.1L437.5,54.1V54V54.1
			l-0.1-0.1c-0.1,0-0.1-0.1-0.2-0.1l0.1,0.1V54h0.1l-0.1,0.1l-0.2,0.1v0.3h0.5V54.1z M437.4,54L437.4,54
			C437.3,54,437.4,54.1,437.4,54L437.4,54z M437.7,63L437.7,63c-0.1,0.2-0.2,0.4-0.3,0.6c0.1,0,0.4,0,0.5-0.1L437.7,63z M438.5,56.8
			L438.5,56.8L438.5,56.8L438.5,56.8z"/>
	</g>
	<g>
		<path d="M121.2,142.3c-0.7-0.1-1.4-0.4-2.4-0.6c-2.4,0-3.3-1.5-4.8-1.5c-0.4,0-0.9,0.1-1.4,0.1l0.5,0.5c-0.5,0.2-1,0.3-1.3,0.4
			c-1.2,0.2-1.6,0.9-3,1.5l0.6,0.8c-0.5,0.2-1.3,0.6-2,0.6c-0.1,0-0.3,0-0.4-0.1c-0.7,0.1-1.1,0.3-1.9,0.3c-0.1,0-0.3,0-0.4-0.1
			c-0.6,0.5-1.4,0.3-2.1,0.4h-0.3c-0.3,0.1-0.6,0.1-0.6,0.2c-0.6-0.2-1-0.1-1.5-0.1c-0.1,0-0.2,0-0.2,0.1h0.3
			c-0.2,0.1-0.4,0.1-0.5,0.1c-0.2,0-0.4-0.1-0.5-0.1c-0.1,0-0.2,0.1-0.2,0.2c-1.6-1.2-4.8-1.8-5.7-2.1h-0.2c-0.9,0-1.9-0.9-2.8-0.9
			c-1.3,0-2.1-1.4-3.6-1.7l-0.4-0.8c-0.5-0.8-1.7-3.1-1.9-5.2V134c0-0.7-0.1-2.1-0.1-2.2c0-2.2,0.6-3,2.2-5.8c0.1-0.3,0.7-2,1.8-3
			c0.4-1.7,3-0.9,3-3.4c0-0.6-1.1-3.1-1.7-4.2c0,0,0.1-0.1,0.1-0.2c0-0.4-0.6-4.4-1.2-4.4c-0.1,0-0.1,0-0.1,0.1
			c1-2.4,0.8-3.2,1.5-4.3l0.4-0.7c0.2-1.2,1.1-1.5,2.8-2.5l0.4-0.2c1.1-0.4,1.9-0.8,3.7-0.9l1.4-0.1c0.4-0.1,1.4-0.1,1.5-0.3
			c0.3,0.1,0.5,0.1,0.8,0.1c0.2,0,0.4-0.1,0.6-0.1c0.2,0,0.5,0.1,0.9,0.1c0.1,0,0.4,0,0.4-0.1c0,0-0.1-0.1-0.3-0.1
			c1,0,1.6,0.6,2.2,0.6c0.9-0.1,1.4-0.6,3-0.6c2.2,0.3,3.7,1.3,4.5,1.4l0.4,0.2c0.4,0.2,0.4,0.5,0.5,0.8l0.1,0.4
			c-0.1,0.1-0.1,0.4-0.1,0.5c0,0.9,0.1,0.4,0.5,3.7c-0.1,0.9-0.3,1.6-0.3,2.2c0,0.1,0,0.4,0.1,0.5c0,0.3,0,0.5-0.1,0.9
			c0.1,0.6,0.1,1,0.2,1.5l-0.7,0.2c0.1-0.1,0.1-0.4,0.1-0.9c0-0.3,0-0.6-0.1-1.2c0-0.2-0.2-1.7-1.4-4l-0.4-0.5c-0.6-0.9-2.2-3-4.1-3
			l-0.2-0.4c-0.3-0.1-0.5-0.1-0.8-0.1c-0.4,0-0.8,0.1-1.6,0.1s-0.5-0.2-2.3-0.2c-0.4,0-2.7,0.9-4.2,0.9l-0.6,0.1
			c-0.1,0.5-0.6,0.7-1.1,1.2l-0.3,0.2c-0.6,0.5-1.4,0.7-1.5,4.1c0.1,0.4,0.4,3.1,0.6,3.7c1.3,5.1,1.5,5.8,4,8.5
			c1.6,0.3-1.2-0.4,6.6,7.3c0.7,1,1.9,1.6,2.8,2.4c1.7,1.1,1.9,1.8,2.4,2.6c1.1-0.4,1.6-3.3,1.8-3.8l0.1-0.8
			c0.1-0.1,0.1-0.3,0.1-0.5s-0.1-0.5-0.2-0.9c0.1-0.7-0.1-2.9,0.5-3.7c-0.5-1.2-0.7-1.7-0.9-2.4l-0.1-0.8l-0.4,0.1
			c0.5-1,1.5-0.9,2.4-0.9c0.1,0,2.5-0.1,2.7,0.1c0.1,0,0.2-0.1,0.4-0.1c0.6,0,1.2,1,1.2,3c-0.1,0.3-0.1,0.5-0.1,0.8
			c0,1,0.1,1.9,0.4,3.7c-0.1,1.4-0.2,2.3-0.4,2.8c-0.5,0.1-1,3.3-1.5,3.8l-0.1,0.1c-0.6,0.5-0.8,0.9-1.2,1.9l0.8,0.7l1.4,0.8h0.5
			c1.3,1,2.5,2,3,2.5c2.7,0,4.7,1.4,4.7,1.4c0.2-0.1,0.4-0.1,0.9-0.5c0.2,0.2,0.3,0.4,0.3,0.6c0,0.9-1,0.4-3,1.1
			c-0.6-0.4-1.5-0.7-2.7-1.2L121.2,142.3z M108.6,137.2c-0.1-0.1-0.2-0.1-0.2-0.3c0-0.1,0.1-0.1,0.4-0.2c-1.4-0.6-2.3-1.2-2.8-1.7
			l-0.3-0.1c-0.5-0.7-1.7-1.1-2.4-2.2c0,0.1,0,0.1-0.1,0.1c0.1,0.1-3.8-1.5-5.6-5c-0.5-0.9-2.8-3.2-2.8-4c0-0.2,0.1-0.4,0.2-0.8
			c-4,3.6-3.6,4.5-4.7,6.1l-0.1,0.6c-0.4,1.4-0.3,3.2-0.5,3.2c0.3,4,1.5,5.7,2.2,6.3l-0.1,0.1c0.6,0.5,1.2,0.8,1.7,1.2l0.6,0.4
			c0.6,0.4,2.7,1.3,3.5,1.3l1.2-0.4c0.2,0.2,0.6,0.2,1.3,0.2c0.8,0,1.7-0.6,2.3-0.6c0.8-0.1,5.5-1.1,6.8-3.7L108.6,137.2z
			 M92.8,109.5l-1.2-0.4l-1-0.1c0,0.1,0.1,0.4,0.1,0.6c0,0.1,0,0.4-0.1,0.6l2.2-0.2V109.5z M91.4,113.4l-0.5,0.1
			c0,0.2,0.2,0.4,0.4,0.9H92L91.4,113.4z M92.8,116.7l-0.6-0.3l-0.1,1.1h0.6L92.8,116.7z"/>
	</g>
	<g>
		<path d="M177.7,125.5l0.4-1.4l2.3-2.5l0.5-3.7c0-0.1,0.1-0.2,0.1-0.3c-0.1-7.3-0.4-14.5-0.6-21.9v-1.1c-0.7-1.8-1.1-2.7-1.9-3.5
			l-0.1-1.9c3.9,0.1,5.3,0.1,6.5,0.1c1.3,0,2.4,0,5.9-0.1v1.5c-1.5,0.2-2.4,0.6-3,1l-0.2,0.1c-0.1,0.1-0.3,0.1-0.4,0.1
			c-0.1,0-0.1,0-0.3-0.1c-0.7,5-0.4,10.3-0.7,17.6l-0.5,0.9v5.8l1.2,5.2c0.4,0.4,0.9,0.9,1.4,1.2h6.3c1.4-0.6,2.7-1.1,3.4-1.4
			l1.5-0.5l1.5-1.4l2.9-1.3c-0.4,2.4-0.4,2.7-0.7,2.9l-0.2,0.8c0,0.1-0.1,0.4-0.1,0.6l-2.8,3.2H177.7z M181.6,114.1v0.6l0.6-0.1
			L181.6,114.1z M182.2,104.1c0,0.1,0.1,0.4,0.1,0.4h2.2L182.2,104.1z M182.7,108.8c0.6,0,0.6-0.1,0.6-0.1c0-0.2-1-0.4-1.1-0.4
			L182.7,108.8z M183.7,101.7c-0.5-0.3-0.6-0.3-0.6-0.3l-0.1,0.6L183.7,101.7z M184.5,116.3c0.1-0.1,0.2-0.2,0.2-0.4l-0.8,0.9
			L184.5,116.3z"/>
		<path d="M241.3,123.4c-0.6,0.4-1.2,0.6-1.5,1l-4.8,1.9h-1.5c-2.7,0-5.1,0.3-7.4,0.3l-0.4-0.7c-2.6-0.4-7.6-2-9.7-3.7l-5.4-6.9
			c-0.9-2.4-1.4-6.4-2.1-7.6v-4.2l0.8-1.6c0.9-2.4,2-3.8,3.2-7.1l1.7-1.8l1.5-0.6l3.2-2.6l0.6-0.3c3.6-1.5,4.1-0.9,4.8-1.7h8.5
			l1.9,0.8c0.2,0.1,1.7,0.3,2.1,0.6l1.9,0.8c0.6,0.3,1.2,0.6,1.6,0.7l2.8,2.7c1.9,0,2.4,2.1,3.2,4.3l0.6,1.6l0.8,0.2
			c0.3,0.1,0.5,0.1,0.8,0.1l0.9,2.1c0,3.9,0.1,7.3,0.2,11c-0.5-0.1-0.9-0.2-1.7-0.2h-1.2c-0.3,0-0.6,0-0.9-0.1l-0.4,1.4
			c0.6-0.1,1.4-0.4,1.9-0.6l1.2-0.3l-0.3,3.2c-2.1,2.8-4.5,6-6.6,6.8L241.3,123.4z M212.9,114.4c0.4-2.3,0.6-3,0.8-3.4
			c-0.8,0.6-2.4,2.4-2.4,3.3c0,0.1,0.1,0.1,0.5,0.1c0.3,0,0.6-0.1,1.1-0.4V114.4z M212.6,102.8c0,0-0.1,0-0.3-0.3l-0.2-0.2
			c-0.1,0-0.2,0.1-0.6,0.1l0.6,0.4H212.6z M213.9,104.9l-1.1,0.2c0.1,0,0.4,0.1,0.6,0.1h0.3c0.2,0.1,0.4,0.1,0.6,0.1L213.9,104.9z
			 M214.6,98.7l-0.5-0.8c-0.8,0.7-0.9,1.3-1.1,2.3h1.4L214.6,98.7z M215.2,95.1c0,0.1-0.1,0.1-0.1,0.2
			C215.1,95.2,215.2,95.2,215.2,95.1z M242.6,112.6c0-0.3,0.3-2,0.3-2.1l0.3-2c0-2.2-0.6-4.4-0.6-6.6c-0.7-1.7-1.6-3.9-2.2-5.5
			l-4.4-4.5c-3.5-1.2-3.5-1.4-6.6-2.4c-1.4,0.4-2.8,0.8-3.4,1.1l-1.3,0.6c-1.1,0.9-4.1,3-4.1,3.5l-1.1,1.6l-0.7-0.1l-0.9,3.7
			c-0.6,0.6-1.2,2.7-1.5,3c-0.5,3.2-1,4.5-1.2,6.5l0.6,0.5c0.4,1.8,0.6,2.7,0.9,3.5l0.6,2.7c0.5,0.9,1.4,1.6,2.4,2.7l1.8,1.9l1.2,1
			c1.2,0.6,1.1,0.6,1.1,0.6c0,0.1,3.1,0.6,3.9,1.6l0.1,0.3c0.1,0,0.5-0.1,0.6-0.1c4.2-1.2,8.8-2.4,10.6-6.2l1.2-0.2L242.6,112.6z
			 M218.2,95.2l-0.4-0.6c0,0.3,0,0.9,0.1,0.9l0.3,0.1V95.2z M244.6,105.5v0.4l0.9-0.4H244.6z M244.9,117.7c-0.1,0.2-0.1,0.4-0.1,0.6
			l0.4,0.5L244.9,117.7z M246,116.9l-0.7,0.2c-0.1,0-0.1,0.1-0.2,0.1c0.6,0.2,0.7,0.3,0.8,0.3L246,116.9z M245.3,108
			c0.1,0.1,0.1,0.2,0.1,0.3c0.4-0.3,1.2-0.9,1.6-1.1c-0.3,0-0.7,0.1-1,0.1L245.3,108z M246.1,110.9c0.2,0,0.6,0.1,0.8,0.2
			c0.1-0.4,0.3-0.6,0.4-0.9c-0.3-0.1-0.9-0.4-1.2-0.5V110.9z M247.2,103.2c-0.1,0.1-0.1,0.3-0.1,0.3l0.1,0.2V103.2z"/>
		<path d="M291.3,125.2l-0.6-0.4h-2.7l-0.8-0.4c-0.6-0.7-0.8-1.1-0.9-1.4l-0.1-0.3c-0.1-0.1-0.3-0.4-0.3-0.4l-1.9-1.6l-0.2-0.7
			c-1.1-0.9-1.8-1.7-4.4-4.5c-0.2-0.2-1.1-1-1.2-1.2l-0.6-1l-2.4-2.4c-3-3-2.7-3.5-3.8-4.5l-0.7-0.2c-0.2-1.4-0.1,0.9-2.1-3.4
			c-0.9,0-2-1.7-2.1-2.2l-0.6-0.3l-0.6-1.7c-0.2-0.1-0.8-0.4-1.4-0.6c0.1-0.7,0.1-1.2,0.4-1.4l-1.1,0.3l0.4,0.3
			c0,1.2,0.3,1.4,0.3,3.2l-0.6,0.4v20l1,1.3c0.2,0.3,0.5,0.6,0.9,0.9l0.6,0.2c1.1,0.4,0.9,1.5,1.3,2.2h-10.7c0-1,0-1.1,0.1-1.2
			l3-2.8c0-7.8,0.4-16.6,0.4-23.8c0-0.6,0-2-0.1-2.9l-0.3-3.1l-0.2-0.2c-0.1-0.1-0.1-0.1-0.1-0.2l-1.1-1l-1.8-0.3V88
			c2.2,0,4.7,0.6,9.1,0.9l0.9,1.7l0.7,0.9l0.6,0.4l0.8,1l0.6,0.2l1.5,2.4c0,0.1-0.1,0.3-0.1,0.4v0.4c0.2-0.1,0.5-0.1,0.8-0.1
			l0.5,0.4l5.4,6.3c0.9,1,1.1,1.3,1.3,2c0.9,0.6,1.7,1.4,2.6,2l0.6,1.3c0.3,0.4,0.9,0.9,1.4,1.4l1.3,1.2c0,0.1-0.1,0.4-0.1,0.5v1.3
			c1.7,0.1,1.8,0.4,4.2,3.1l0.2,1.4c0.5,0,1,0,1.4-0.1c-0.1-0.1-0.5-0.3-0.6-0.4l-0.3-1v-3.6h3c0.1,0,0.2-0.1,0.2-0.1v9.9l1,0.9
			l0.9,0.2c0,1.7-0.2,1.2-0.2,1.9L291.3,125.2z M268.1,98.7h-0.3c-0.2,0-0.4,0-0.4,0.2l1.3-0.2H268.1z M268.1,96.4
			c0.1,0,0.2,0,0.4-0.1L268.1,96.4z M270.3,99.2l-1.3-0.6l-0.4,0.1l0.4,0.1l0.1,0.7h0.9l0.4,0.1c0.2,0.2,0.7,0.6,1.1,0.6L270.3,99.2
			z M272,103.6v0.6c0.4-0.2,0.4-0.1,0.6-0.4L272,103.6z M272.2,103.1c0,0.3,0,0.4,0.1,0.4L272.2,103.1z M274.5,105.4
			c-0.1-0.2-0.2-0.5-0.3-0.9c-0.1,0.3-0.3,0.5-0.3,0.6L274.5,105.4z M274.5,104.2c0.1,0,0.1,0,0.2-0.1c0-0.1-0.2-0.1-0.4-0.1
			C274.3,104.1,274.4,104.2,274.5,104.2z M275.5,103.9c-0.2,0.1-0.4,0.1-0.8,0.1c0.4,0.4,0.6,0.4,0.6,0.4L275.5,103.9z M278.7,108.5
			c0-0.1-0.3-0.2-0.3-0.4l-0.2-0.1h-0.5l0.5,0.5H278.7z M278.4,110.7l-0.3,0.3l0.6-0.2L278.4,110.7z M280.3,110.6l-1.5,0.2l1.2,0.1
			c0.3,0,0.5,0.1,0.9,0.1L280.3,110.6z M283.6,113l-1.4,0.2v0.4c0.1,0,0.4,0.2,0.4,0.2l0.7-0.2L283.6,113z M291.2,111
			c-0.5,0-1.8,0.2-2.1,0.2l-0.5-11.7l-0.2-0.2c-0.1-0.1-0.2-0.4-0.2-0.7v-0.4c-0.1-1.9-0.2-4.2-0.3-6v-0.4l-0.4-0.3
			c-0.1,0-0.8-0.4-1.2-0.7v-1.5c0.6,0,1.4,0,1.8-0.1l0.6,0.1c1.8,0,3.3,0.1,4,0.1h0.8l0.4,0.4c-0.1,0.4-0.6,1-0.9,1.3l-0.3,0.4
			c-0.3,8.6-0.6,11.7-0.6,14.5c0.2,0.4,0.4,0.8,0.4,1.9c-0.5,0.5-0.7,1.5-0.7,1.9l-0.3,1.3H291.2z M287.6,119.3c0,0,0.4,0,0.6-0.2
			C288.1,119.3,287.6,119.3,287.6,119.3z M288.4,118.5c0,0.1,0,0.1,0.1,0.2L288.4,118.5z M290.9,102.3c-0.2,0-0.3-0.1-0.4-0.1v0.6
			l0.4,0.1V102.3z M290.8,97.8c-0.1-0.1-0.1-0.1-0.1-0.3c0,0.1-0.1,0.1-0.1,0.2L290.8,97.8z"/>
		<path d="M323.7,125.3c-14.5,0.1-18.7,0.1-21,0.1c-2.5,0-2.5-0.4-2.5-0.7l2.2-1.8v-5.4c0-2.7,0.1-5.7,0.1-8.8v-2.2
			c-0.1-0.1-0.3-0.5-0.3-0.6l-0.3-0.6L301.4,91c-0.6-0.6-1.9-1.7-2.6-1.9v-0.3c1.5,0,3.2-0.1,4.4-0.1h1.2l1.2,0.5
			c5.1,0,13.2-0.1,17.1-0.5l0.4,0.2c0.3,0.2,0.6,0.3,1,0.4l-0.3,1.6l1.2,4.8c-1.6,0-2.7-0.4-3.4-2.8c-0.6-0.2-0.9-0.4-4-0.4h-8.1
			c-0.8,1.7-1.8,3.3-2.7,4.9l0.3,1.2c0.1,0.7,0.6,2.4,0.7,2.6c0,1.4-0.2,1.7-0.2,3.3c-2,0.6-2.3,0.7-2.6,1.9l-0.4,0.6
			c2.7,0.3,3.2,0.3,3.2,0.3c0.6-0.5,2.4-1.9,4.6-2.1h3.6l0.6-0.6l1.4-0.3c0.3,0,0.6-0.3,0.9-0.3c0,3.2,0.2,5.7,0.2,6.3v1.2
			c-1.9-0.6-2.6-2.1-2.7-3.2c-2.2,0.1-3.9,0.2-4.7,0.6l-3.7-0.2c0.1,1.2,0.3,6.9,0.3,10.3l-0.6,0.9c0.2,0.9,0.4,1.7,0.4,1.7l0.6,0.2
			c1.2,0.5,3.2,1,5.2,1.2c1.4-0.4,3.1-0.9,4.6-0.9l2.2-0.1l3.4-2.4l0.4-0.1l0.9-0.9l1.1-0.7h1.6c0,0.1,0.1,0.1,0.4,0.2l-1.2,3.3
			l-1.2,1.3c0,1.3-1,1.8-1.7,2.1L323.7,125.3z"/>
	</g>
</g>
<g>
	<g>
		<path class="st0" d="M617.3,121c-3.6-2.4-3.8-2.5-3.8-2.5c-0.6,0-1.5,0.3-2.5,0.8l-3.9,0.3l-0.8-1.9h0.1
			c-1.6-4.2-4.2-10.9-7.6-14.5l-0.5-2.7l-1.2-3.6h1c-2.3-1.4-9.3-12.9-11.8-19.2c-2-4.8-3-4.8-3.9-7l-1.2,1.9h0.3l-4,11.4
			c0,0-2.1,2.4-2.1,4.9c0,0.3,0,0.8-0.1,0.8c0,0-0.2,0-0.2-0.1c-1.2,1.5-2.1,3.4-3.3,6.4c0,0-2.8,6.3-4.2,12.1c-1.1,1.2-5,8.1-5,9.4
			l-9.4,4.3l-0.9-3.1h0.2c-1.7-4.5-4.4-12.9-7.7-15.7l-2.4-7.2h0.5c-1.7-1.8-4-4-4.8-6.3l-0.6-1.8c0-0.6-0.3-1-0.6-1.6l-1.2-1.9h0.3
			l-5.7-9.9h0.3c-4.2-5.2-0.5-3.9-8.8-17.2l-0.8-0.9c-1.5-3.6-4.3-8.1-6-8.8l-2.4-4.8l-0.6-2h0.1c-0.6-1-1.5-2.1-2.1-3.1h0.9
			l-1.8-0.9h0.2c-2.4-1-4.6-2.1-9.1-2.1l-0.1-1.6h39.1l0.1,2.1l-4.6-0.1c0,0.3-0.3,0.8-0.5,1.4h0.2c-0.2,0.6-0.3,1.3-0.3,2.5
			c0,0.6,0.1,1.8,0.3,2.4l3.1,6.6c0.8,5.5,1.2,7,2.7,8.7l0.6,1.4h-0.5l3,3.3h-0.6c4.2,6.9,2,6.1,4.3,9.9l0.3,0.1h-0.3l0.9,2.1h-1.2
			c3,1.6,2.3,5.5,4.6,7.6l1.5,3.7l2.3,7h-0.5c3.2,3.6,5,6.4,6,8.7c0.9-3.4,2.9-6.8,3.6-7.5h-0.4l0.9-3.9l1.5-4.6l2.1-2.3
			c0,0-0.2-0.1-0.2-0.5c0-0.6,0.2-1.8,0.5-3.4c2.1-8.1,3-6.1,5.1-13.9l2.4-6H576c-0.2-0.9-0.6-1.8-0.8-2.7h0.5l-3.8-5.3
			c-0.9-1.3-1.8-2.3-2.5-2.8l-1.2-1.2l-3.3-8.8c-3.8-1.4-3.9-1.5-4-1.6l-1.4-0.8c-2.1,0-1-0.4-5.1-0.4l0.2-1.6h38.8v1
			c-0.8,0.4,0.1,0.6-2.7,1.5h0.3c-0.8,0.4-1.3,0.9-1.3,4.2c0,0.1,0.1,0.4,0.1,0.8l0.2,1h-0.3c2.1,3.1,2.4,6,3.1,7.6l-0.4,1.9l1,2.7
			h-0.2c0.9,1.8,1.3,2.7,1.7,4.3h-0.8l3.6,3l0.3,1.8h-0.3l0.9,1.9c0,1.5,2,5.1,2.3,5.4l1.8,3.4c0,0.8,0.3,3.6,2.9,7.2l4.3,11.1h-0.3
			l1.3,1.8h-0.1c1,1,1.2,1.2,1.2,1.3h-0.3c2.5,2.7,2.8,3.9,3,4.6h-0.2l0.5,1.4c1.7-5.4,2-4,5.5-16.5l0.3-1h0.3
			c0.7-1.5,0.4-6.6,4.3-8.1h-1.4c0.9-3.6,1.7-4.2,2.9-9.1h-0.5l0.9-2.5c1.8-5.2,5.1-10.3,6.3-12.3h-0.4c0.3-1.6,1.2-3.5,2.1-5.4
			h-0.2l0.6-1.4l-0.2-0.4c0.6-1.4,1-2.1,1.8-4.4h-0.1c0-0.4,0.3-1,0.3-1.5c-0.2-0.9-0.6-1.9-0.8-2.8h0.6c-1.5-0.1-2.8-0.8-3.9-1.5
			l-0.2-0.8c5.4-1,3.5,0.1,9.1-1.9c0.3,0.4,0.5,0.9,0.5,1h0.5c0.5,0,0.8-0.1,1.3-0.1l1.7,0.1c0.6,0.1,0.8,0.1,1.2,0.1
			c0.9,0,3-0.3,4.8-0.3c0.9,0,1.8,0,2.7,0.3c0.2,0,0.3-0.1,0.5-0.1l3.3-1.6l0.8,4c-0.3,0-2.5-0.6-4.5,1.8l-4.8,0.3h2
			c-2.7,4.9-5.3,8.4-5.3,11.2c0,0-2.7,7.9-4.9,10.2h0.4c-1,2.6-1.9,4-3,6.4h0.3c0,0-0.3,0.5-1,1.5h-0.3c-1.5,2.3-0.9,4.2-3.1,6.4
			h0.3l-1.3,2.9h0.1l-2.1,7.5l-0.9,1.6c-1,1.5-1.8,3-1.8,4.2h0.5c-3.8,6-4.3,7.6-4.3,7.6c-0.5,0.8-3.9,7.6-3.9,11.8l-1.6,2.7
			c-1.3,2.3-3.2,5-3.2,7.4L617.3,121z M532.8,61.4h0.6c0-0.8,0.2-2.3,0.2-3h-1.5l-0.5,5.8h3.9L532.8,61.4z M552.8,95h-2.1
			c0,0,0.2-0.1,0.3-0.1h-1.8l1.2,3h1.2c-0.2,0-0.3,0.1-0.3,0.1h1.5V95z M583.7,34.3h-2.8c0.6,0.3,1,0.3,1.3,0.4l2,0.3L583.7,34.3z
			 M583.8,37c0,0.3,0.4,0.3,1,0.3c0.1,0,0.3,0,0.3-0.3c0-0.3-0.3-0.8-0.8-1.6h0.2c-0.3,0-0.3-0.3-0.5-0.3c0.1,0.1,0.1,0.3,0.3,0.3
			h-1.2l0.2,1.5h0.6L583.8,37z M587.9,59.3h-0.3l0.7-1.2h-3.7l2.3,3.3h1V59.3z M606.8,98.2c0-1.1,0.3-2.1,0.3-3.1h-1.7
			c0,0,0.2-0.1,0.3-0.1h-1.3l1.2,3.3H606.8z M609.6,100.7c-1.4-0.8-2.7-1.8-4-2.5l0.9,2.5H609.6z"/>
	</g>
	<g>
		<path class="st0" d="M665.3,178.2l-1,0.9l-12.8,1.3l-0.3-4.6l1.8-1.8h-0.6l0.4-4.6l-2.5-2.9l-2.4-6.7h0.6
			c-1.2-1.1-3.1-3.2-4.3-4.2l-0.6-2.7l-4.8-5.1c-8.5-0.3-18.1-0.9-26.5-1.5c-0.9-1-1.5-1.3-3.6-1.8c-7,11.5-3.6,8.5-12,25.5l3.1,4.6
			c2.1,2.5,3.8,4.8,3.9,5.5c-8.3-1-8.7-1.2-10.5-1.9h-6c-4.6,0.9-12.3,2.5-16.5,3.3c-0.3-2-0.5-3.3-0.5-3.5l1.7-1.8
			c5.4-0.5,7.3-2.8,10.3-4.7l2.7-1.6h-0.8c8.7-12.8,8-15,10.7-22.2l1.5-2c2.7-3.4,2.7-3.9,9.3-19.9c1.4-4.8,3-7.5,12.8-32.2l2-2.2h9
			c2.3,3.6,3.8,6.4,4.7,8.2c3.1,6.9,4.8,8.3,9.1,15.1c3.8,9.2,4.8,10,5.4,12.3h-0.8c4,3,2.5,5.3,4.7,6.5l1.5,3.3
			c0.8,1.6,1.6,3.6,2.5,6.7l3.4,5.1c4.5,6.7,11.4,18.1,17.8,24.4c6.9,0,7,2.6,7.9,4.5h2.4v2.4L665.3,178.2z M630,129.6l-0.6-3.8
			l-6.6-9.3c-0.2-1.8-0.9-2.3-1.7-2.3s-1.3,0.3-1.6,0.3c-0.9,0-3.6,15.1-5,15.1l-4.6,7.2l1.2,1c0.8,0.8,1.2,1.4,2,2
			c8,0,15.6-0.6,23.7-0.9c-1.3-1.4-2.3-2.5-2.5-5L630,129.6z M622.1,101.4c-0.6,0.6-0.9,0.9-0.9,1h1.5l1.7-1H622.1z M628.1,99.4
			l-0.9-0.8l1.2-1.2h-3.3c0.1,0.3,1,0.3,1.8,0.3l-0.6,0.2c0,0.2-0.3,0.3-0.3,0.5h0.6l-0.3,1c-0.4,0.3-2.3,1.2-2.1,1.2l2.7,0.1
			L628.1,99.4z M631.4,105.3H629l3.1,0.8L631.4,105.3z M634.5,108.4l-3.3-1.8l0.5,1.1c1.3,1.2,1.9,1.6,2.5,1.8L634.5,108.4z
			 M634.2,110.8l-0.5-1l-1.7,2c1.1,0,2.9-0.6,3.8-0.9H634.2z M648.2,151.3l-0.8-0.1l-2.5,0.3l-0.6,0.9h3.9V151.3z M648.6,145.9
			c-2.1-2.4-2-2.5-2-2.5h-1.5l0.6,0.9l0.4,1.7H648.6z M649.7,149.7c-0.6,0-1,0.3-1.3,0.3h0.9l-1.8,1.2l4,0.6L649.7,149.7z"/>
	</g>
	<g>
		<path class="st0" d="M694.6,76.4l-0.7,0.1c-0.1,0-0.1,0.1-0.2,0.1c-0.5,0.1-0.9,0.2-1.5,0.1c-3,0-6.3-1.3-8.4-2.2
			c-0.7-0.4-1.4-0.6-1.7-0.6l-4-3.7l-0.8-1.9c-0.1-0.1-0.2-0.3-0.2-0.4l-0.3-0.4l-0.5-0.6l-0.3-0.4c-0.3-0.4-0.6-0.8-0.9-1.3
			l-0.6-2.4c-0.2-0.2-0.8-0.7-1-1l-0.9-0.9v0.1c-1.6,0-3.2-0.1-4.7-0.1V61l-0.6,1.6c0.1,0.3,0.3,0.7,0.4,0.9v-0.1l0.2,0.6
			c-0.4,0.6-0.6,1.5-0.6,2.4l0.6,0.5l0.6,6.6l1,0.6l1.8,1.1l0.4,1.7h-0.3c-0.1,0-0.1,0-0.2-0.1v0.1h-0.6c-0.8,0-1.9,0-2.6-0.1
			c-0.2,0-0.6-0.1-0.9-0.1h-1.6c-0.3,0-0.6,0.1-0.9,0.1c-0.9,0.1-2.5,0.1-3.8,0.1h-1.4c-0.1,0-0.1,0.1-0.3,0.1l-0.2-2.3
			c0.2-0.1,0.7-0.4,2.6-1.1c0.1-1.8,0.4-3.7,0.5-5.5v-2c0-2,0-4.2-0.5-6.5v-0.1l0.1,0.1c-0.1-0.9-0.1-2.3-0.1-3.1v-0.1l0.3,0.6v-0.1
			h2.7v-0.4l-3-0.3V53c-0.3-0.7-0.6-2.1-0.6-3c0.3-0.4,0.5-0.9,0.6-1.6c0.3-0.1,0.9-0.1,1.2-0.1l0.4,0.5l0.3,0.9v0.1h0.1l-0.1-0.1
			c0-0.1,0.1-0.1,0.1-0.1l-0.1-0.4l0.9-0.3l0.3-0.1v-0.6l-0.9-0.9c-0.4,0-0.7,0.1-1,0.2c-0.1,0-0.4,0.1-0.4,0.1l-0.8,0.2v0.4
			c-0.1-0.4-0.6-1.6-0.9-2.4l-0.9-2.8V43c-2.4-0.4-3.2-0.6-3.9-1.1v-1.4c0.6-0.2,1.4-0.4,1.9-0.5c0.1,0.1,0.3,0.3,0.4,0.3l0.6,0.1
			c1.4,0,2.7,0.1,4,0.1c0.4,0,1.4,0.1,1.8,0.1h6.6l5,0.1l6.3,3.6l0.4,1.6l0.2,0.9l0.5,1.8v4.8c-0.3,0.4-0.9,1.7-1.3,3l-0.8,0.2
			l-3.2,2.7c0,0.3-0.1,0.6-0.1,0.9c0.3,0.4,0.6,0.9,0.9,1.2l1.4,1.9c0.2,0.6,0.4,1.4,0.5,2.1l7.8,7.3v-0.1l1,0.5
			c0.6,0.2,1.9,0.8,2.6,1.2l0.4,0.2l6-0.2c0.1-0.1,0.4-0.1,0.4-0.1v0.9L694.6,76.4z M663.1,60.4v0.1c-0.4-0.1-1.2-0.4-1.7-0.5v0.4
			l0.3,0.4l0.3,0.4v-0.1h1.3L663.1,60.4z M662.1,49.7v-0.1c-0.1,0.4-0.3,0.6-0.4,0.9l1.3-0.2c0,0,0.1-0.2,0.2-0.6H662.1z M663.9,53
			c0.1-0.3,0.3-0.6,0.4-1L664,52c-0.3,0.1-0.7,0.2-0.9,0.4V53c0,0.1,0,0.1,0.1,0.1v0.3C663.4,53.2,663.8,53.1,663.9,53L663.9,53z
			 M663.8,62.2L663.8,62.2c-0.3,1-0.5,1.4-0.6,1.5c0,0-0.1-0.1-0.1,0.1h1.2L663.8,62.2z M665.5,68.4c-0.4,0-0.9-0.1-1.3-0.1v-0.1
			l-0.3,0.3v0.2c0,0.1,0.1,0.1,0.1,0.2v0.4l1.5-0.3V68.4z M676.4,56.1c0.5-1.8,0.9-2.5,1.1-2.9v-5l-0.3-0.8
			c-0.4-0.8-1.7-2.3-5.2-4.5c-1.6,0-4,0.1-5.6,0.1V43c-0.1,0.5-0.2,5.1-0.2,7.1c0.1,0,0.2,0.1,0.2,0.1c0,0.1,0.1,0.2,0.3,0.2
			l0.8,7.8l1.8,0.5l3.8-0.7L676.4,56.1L676.4,56.1z M678.7,50L678.7,50l-0.6,0.4c-0.1,0.1-0.3,0.1-0.1,0.1h0.4l0.6-0.4H678.7z
			 M681,49.2c0.1-0.4,0.1-0.4,0.1-0.5c-0.1-0.1-0.3-0.1-0.5-0.1c-0.1,0-0.2-0.1-0.3-0.2l-0.6,0.5c0.1,0.1,0.2,0.2,0.3,0.2l-0.5,0.6
			l-0.4-0.1v0.4l-0.1,0.1h0.1v0.1l0.6-0.4h-0.1c0.1-0.1,0.4-0.1,0.4-0.1c0.1-0.1,0.4-0.2,0.6-0.4l0.3-0.2V49.2z M679.2,49.9
			L679.2,49.9l0.2-0.1L679.2,49.9z M679.7,49.7l-0.1-0.1L679.7,49.7z"/>
		<path class="st0" d="M721.6,76.9c-14.5,0.1-18.7,0.1-21,0.1c-2.5,0-2.5-0.4-2.5-0.7l2.2-1.8V69c0-2.7,0.1-5.7,0.1-8.8V58
			c-0.1-0.1-0.3-0.5-0.3-0.6l-0.3-0.6l-0.6-14.1c-0.6-0.6-1.9-1.7-2.6-1.9v-0.3c1.5,0,3.2-0.1,4.4-0.1h1.2l1.2,0.5
			c5.1,0,13.2-0.1,17.1-0.5l0.4,0.2c0.3,0.2,0.6,0.3,1,0.4l-0.3,1.6l1.2,4.8c-1.6,0-2.7-0.4-3.4-2.8c-0.6-0.2-0.9-0.4-4-0.4h-8.1
			c-0.8,1.7-1.8,3.3-2.7,4.9l0.3,1.2c0.1,0.7,0.6,2.4,0.7,2.6c0,1.4-0.2,1.7-0.2,3.3c-2,0.6-2.3,0.7-2.6,1.9l-0.4,0.6
			c2.7,0.3,3.2,0.3,3.2,0.3c0.6-0.5,2.4-1.9,4.6-2.1h3.6l0.6-0.6l1.4-0.3c0.3,0,0.6-0.3,0.9-0.3c0,3.2,0.2,5.7,0.2,6.3v1.2
			c-1.9-0.6-2.6-2.1-2.7-3.2c-2.2,0.1-3.9,0.2-4.7,0.6l-3.7-0.2c0.1,1.2,0.3,6.9,0.3,10.3l-0.6,0.9c0.2,0.9,0.4,1.7,0.4,1.7l0.6,0.2
			c1.2,0.5,3.2,1,5.2,1.2c1.4-0.4,3.1-0.9,4.6-0.9l2.2-0.1l3.4-2.4l0.4-0.1l0.9-0.9l1.1-0.7h1.6c0,0.1,0.1,0.1,0.4,0.2l-1.2,3.3
			l-1.2,1.3c0,1.3-1,1.8-1.7,2.1L721.6,76.9z"/>
		<path class="st0" d="M749.6,77.8c-0.2,0-0.5,0.1-0.7,0.1c-1.8,0.3-3.7,0.5-5.6,0.5h-0.9c0.5-2.1,0.8-2.7,1.1-3l0.3-24.1
			c0-0.1-0.1-0.1-0.1-0.2l-0.5-4.9l-2.8-2.9v0.1h-5.6v0.3c-0.5,0-0.9-0.1-1.2-0.1H733c-0.4,0.1-1.2,0.1-1.5,0.1l-1.9,0.6v-0.1
			l-2.2,1.9l-0.2,0.1c0.5-1.2,1.7-3,1.7-3l1.4-3.2c0.2-0.2,0.6-0.2,0.9-0.2c0.2,0.1,0.4,0.6,0.4,0.6h33.1l0.5-0.3v0.7
			c-0.3,0.6-1,1.7-1.2,1.9l-0.4,0.5l-0.1,1.1c0,0.1-0.1,0.4-0.6,0.8v-0.1l-0.2,0.5c-0.1,0.1-0.1,0.3-0.1,0.4c0,0.1-0.1,0.1-0.1,0.4
			v0.3l-0.3-2.8L749.7,45c-0.1,7.4-0.1,15-0.1,22.3l0.6,3.1c-0.4,1.1-0.6,3.3-0.6,5c0.1,0.4,0.6,1.2,0.8,1.5l0.7,0.7L749.6,77.8z
			 M745.9,66.3c-0.4,0-1.1-0.1-1.5-0.1v-0.1l-0.2,0.3c0,0.1,0.1,0.1,0.1,0.2v0.6l1.4-0.2c0-0.1,0.1-0.4,0.1-0.4L745.9,66.3z
			 M747.6,48.1l-0.2-0.2l-0.4-1.1v0.1l-2.1-0.7v0.1c0.1,0.2,0.5,0.6,0.6,0.7l0.4,0.4l0.3,1.4h-0.6v0.2l0.6-0.2l1.9-0.2
			c0,0-0.1-0.1-0.1-0.1L747.6,48.1z M747,67.9c-0.4,0-0.9,0.1-1.2,0.1v-0.1l-0.8,0.9c0.1,0.2,0.1,0.4,0.1,0.7
			c0.6-0.4,1.4-0.9,1.9-1.2V67.9z M746.4,50.7c0-0.1,0.1-0.3,0.1-0.3s-0.1,0,0-0.1c-0.4,0-0.9,0.1-1.1,0.1l-0.1,0.4
			c0,0.1,0.1,0.1,0.1,0.2c0.1,0,0.3-0.1,0.4-0.1L746.4,50.7z M746.2,54.8c0.1-0.1-0.4,0.2-0.6,0.4h0.5c0.1,0,0.4-0.1,0.6-0.4H746.2z
			 M747.4,63L747.4,63c-0.3,0.1-0.9-0.1-1.7-0.6c0.1,0.4,0.1,0.4,0.4,0.8l0.5,0.8v-0.1h1.1c0-0.1,0-0.1-0.1-0.2L747.4,63z
			 M748.6,59.2l-2.8-0.3l0.4,0.9v-0.1h2.4V59.2z M746.2,49v1.2c0.1,0,0.4,0,0.4-0.1c0.1,0,0.1-0.1,0.3-0.1L746.2,49z M748.4,53.8
			c0.1-0.4,0.1-0.4,0.3-0.6c-0.2-0.1-0.3-0.1-0.4-0.1c-0.1,0-0.3-0.2-0.4-0.4l-0.5,0.6l0.2,0.3l-0.4,0.7h0.2v0.1
			c0.1-0.1,0.1-0.1,0.2-0.1L748.4,53.8L748.4,53.8z M748.6,66c-0.1-0.3-0.3-0.7-0.4-1.1c-0.1,0.3-0.5,0.8-0.4,0.7v0.1l-0.3,0.3
			H748.6z M749.1,51.4c-0.1,0-0.1-0.1-0.4-0.1l-0.3,0.1v-0.1l-0.5,0.4l-0.2,0.2h0.4L749.1,51.4z M748.9,53l-0.2,0.2
			c0.1,0.1,0.1,0.1,0.2,0.1V53z M750.2,42.7c-0.1-0.1-0.1-0.4-0.1-0.6l-1.4,1.4l0.2,0.6L750.2,42.7z M749.2,51.4L749.2,51.4
			L749.2,51.4L749.2,51.4z M750.3,42.7L750.3,42.7c-0.1,0.1,0,0.1,0,0.1V42.7z M752.5,43.9l-2,0.1l0.5,0.3c0.3-0.1,1.2-0.1,1.5-0.1
			V43.9z M753.7,40.9V41l-1,0.9l0.4,0.7v-0.1l0.9-0.7L753.7,40.9z"/>
		<path class="st0" d="M799,75.9c-2.1,1-4.9,1.6-6.6,1.9l-1.9,0.4l-9.5-0.8l-1.3-0.6c-0.5,0-0.8-0.3-0.9-0.3l-2.8-0.9l-4.1-3.7
			c0,0-0.2-0.2-0.3-0.4l-0.3-0.3c-0.6-0.6-1.3-1.3-2.2-2.4l-0.3,0.1l0.1-0.6c-0.3-0.9-0.6-1.5-0.9-2.1c-0.7-1.6-0.1-1.4-1-4.2v-7.4
			c0.6-1.2,0.3-1.5,2.1-5.7c0.4-0.6,0.8-1.4,0.8-2.2l3.7-3.9c1.9-0.7,4-1.7,5-2.2l1.5-0.7c2.7,0,6.3-0.2,9.4-0.4h0.5
			c5.1,0.4,5.7,0.4,6.8,0.9l1.4,0.3c0.3,0.1,0.9,0.1,1.3,0.1l0.4,0.4l1.3,5.5c0.1,0.4,0.1,0.7,0.1,0.9c-0.2,0.1-0.4,0.2-0.6,0.2
			l-0.7,0.2c0-0.3-0.1-0.6-0.1-0.9L796,43c-1.9-0.6-2.6-0.7-4-0.7c-7.8,0-10.3,1.9-12.2,3.4l-1.2,0.2c-0.4,1-3,4.2-3.7,9.8
			c-0.6,0.9-0.9,2.4-0.9,4.2l-0.2,1.8c0.3,1.7,1.1,2.4,1.6,4.4l4,6.3c0,0.1,0,0.2,0.1,0.4l0.1,0.4c0.1,0,0.9,0.4,1.2,0.4l2.3,0.9
			c0.6,0.4,2,0.6,2.5,0.9c2.3,0.4,1.7,0.3,3.5,0.6c3.2-0.9,4.9-1.6,5.8-2l1.3-0.3l1.2-1.2c0.8-1.1,1.4-2.1,1.7-2.8
			c3.8,0,2.4,0.9,3,1.7c-0.4,1.2-0.7,2.3-0.7,4L799,75.9z M772.8,65.5h-3.7l0.2,1.3c0.4,0.1,0.9,0.3,1.4,1.1c1.7-0.6,1.7-1.2,1.9-2
			L772.8,65.5z M769.5,54.7c0.7,0,0.9,0,1.9,0.5c0.5,0,0.8-0.1,0.9-0.1c0-0.8-0.4-0.6-0.6-1.4c-1.4,0-1.3,0.4-2.2,0.4V54.7z
			 M772.3,62c-0.3-0.1-0.4-0.1-0.6-0.1l-2.2-0.1c0.1,0.2,0.3,0.6,0.3,0.9h2.5V62z M771.1,56.5c0,0.1,0-0.4,0.2-0.6
			c-0.2,0.1-0.5,0.1-0.7,0.1c-0.1,0-0.4,0-0.4-0.1c-0.1,0.3-0.3,0.6-0.4,0.9L771.1,56.5z M772.3,58.1L772,58c-0.1,0-0.1,0.1-0.2,0.1
			l-0.3,0.1c-0.1,0.1-0.3,0.2-0.4,0.2v1c0.6-0.5,0.6-0.6,0.7-0.6s0.1,0.1,0.2,0.1L772.3,58.1z M775.8,69.2c-0.5-0.1-1.3-0.5-1.8-0.7
			c0.1,0.5,0.4,0.8,0.9,1.4h1.2L775.8,69.2z M774.8,45.3l-0.6,0.5h0.4l0.7-0.5H774.8z M777.4,43.9c-0.4-0.3-0.6-0.1-0.9-0.5
			l-0.6,0.6l0.6,0.6H776c-0.1,0-0.3,0-0.4-0.1c0,0.1-0.1,0.1-0.1,0.2c0,0,0.1,0.1,0.3,0.1c0.3-0.3,0.6-0.1,0.9-0.5l0.3-0.1
			L777.4,43.9z M776.7,71.2l-0.6,0.7c0,0-0.1,0.1-0.3,0.4l1.1-0.1L776.7,71.2z M779.6,41.4c0,0.2,0.1,0.6,0.1,0.7
			c0.2,0,0.6-0.1,0.7-0.1l0.4-0.1c0-0.1,0.1-0.3,0.2-0.4H779.6z M781.8,42.5c-0.3,0.1-0.5,0.2-0.8,0.2c-0.1,0-0.2-0.1-0.3-0.1
			l-0.6,0.8c0.1,0.1,0.1,0.3,0.1,0.4l1.6-0.9V42.5z"/>
		<path class="st0" d="M845.1,76.5c-0.1,0-0.1,0.1-0.2,0.1c-0.1,0.1-0.3,0.1-0.5,0.1c-0.8,0-1.8-0.1-2.5-0.1c-0.1,0-0.4-0.1-0.5-0.1
			c-0.4-0.1-0.8-0.1-1.1-0.1c-0.1,0-0.4,0-0.9,0.1c-0.1,0-0.4,0-0.6,0.1c-0.1,0-0.2,0.1-0.4,0.1l-0.2-0.1c-1.1,0.4-2.1,0.7-3.3,0.7
			l-0.4-0.1c-0.1-0.1-0.2-0.2-0.2-0.4c-0.4-0.4-0.6-0.8-0.8-1.4l1.3-0.1l1.7-0.1v0.1l1.9-2v-13c-0.1,0-0.4,0.1-0.5,0.1
			c-0.1,0.1-0.3,0.1-0.4,0.1h-2.2l-1.7-0.3l-2.1,0.2l-1.5-0.2l-1.7,0.3H825l-1.9-0.2h-3l-0.9,0.2l-1.9-0.1v1.6l-0.6,2.6
			c0,0.1-0.1,0.1-0.1,0.3v0.4c0,0.4,0.1,0.7,0.1,1.1c0,0.1,0.1,0.1,0.1,0.3c0.1,0.3,0.1,0.7,0.1,0.9c0,0.3-0.1,0.6-0.2,0.7
			c0.6,3,0.9,5,0.9,7.1l-0.1,0.8l-1,0.3c-2.4,0.1-4.7,0.4-7.3,0.7c-0.6,0-0.6-0.6-0.7-1.3c0-0.2,0-0.3,0.4-0.9
			c0.3-0.2,0.4-0.2,1.8-0.8v0.1l0.2-0.9v-0.8c0-0.4,0.1-1.2,0.1-2.7v-3l-0.1-1.3v-4.1c0-0.2,0.1-0.5,0.1-0.8v-1.2
			c0-0.1-0.1-0.4-0.1-0.6c0-0.6,0.1-1.4,0.1-1.7v-0.4l-0.2-1.7c0-0.1-0.1-0.2-0.1-0.3c-0.1-0.5-0.3-2-0.3-3.2
			c-0.1-0.1-0.2-0.4-0.2-0.5c0-0.6,0.1-1.3,0.4-1.9c0-0.1-0.1-0.1-0.1-0.3c-0.1-0.5-0.3-1.4-0.3-2.1c0-0.2,0-0.8,0.1-1.1
			c-0.1-0.4-0.3-0.9-0.4-1.2v0.1c-0.1,0-0.1-0.1-0.1-0.1l-0.6-0.6v0.1c-0.1,0-0.3-0.1-0.4-0.1c-0.1-0.1-0.2-0.1-0.6-0.5l-0.5-0.4
			l-0.7-1.9h8l0.6-0.1l4.1,0.3l-0.9,2.4l-0.9,1.2l-1.2,1.6v5.2l0.5,1v3.2l0.1,1.5h8.3l1.1,0.1l2-0.1h6.6l1.4,0.1l1.6-0.1v-2.8
			l-0.2-0.6l-0.4-0.5l-0.1-3.2l-0.2-0.9V47l0.1-0.9l-0.5-3.6c-0.4-0.1-0.7-0.1-1-0.3l-1-0.3l-1.4-0.6l0.1-0.7
			c0.3,0.1,0.9,0.1,1.6,0.1c0.7,0,1.2,0,1.7-0.1l1.2,0.1h3.5l0.7,0.6c0.4-0.1,0.9-0.2,1.2-0.4c0.4-0.1,0.6-0.2,2.4-0.2h0.4
			c0.1,0,0.1,0.1,0.2,0.1h0.3c0.4,0,0.7-0.1,1.1-0.2V41l-1,0.7c-0.3,0.1-0.6,0.1-1.1,0.5v-0.1l-0.8,1l-0.2,0.4
			c-0.1,0.1-0.1,0.2-0.1,0.2c-0.1,0.6-0.4,1.8-0.6,2.7v2.4l-0.2,2.2c0.4,0.2,0.6,0.8,0.6,0.9c0,0.3-0.1,1-0.1,1.4
			c0,0.1-0.1,0.4-0.1,0.5V54c0,0.1-0.1,0.1-0.1,0.3v0.5c0,0.3-0.1,0.6-0.1,0.9v0.8c0,0.3,0,0.6,0.1,1.1v-0.1l0.4,1.1V65l-0.5,1
			l0.1,0.6l-0.1,3.2c0,0.1-0.1,0.3-0.1,0.4v0.3l0.1,2.3l0.2,1.2l0.3,0.4l0.4,0.3V76.5z M814.7,52.6c0-0.2,0-0.6,0.1-0.9
			c0-0.2,0.1-0.6,0.1-0.8c-0.4,0-1-0.1-1.4-0.1v-0.1l-0.4,0.4l-0.3,1l-0.3,1.5c0.2,0,0.6,0,0.9-0.1c0.3,0,0.6-0.1,0.9,0
			c0-0.2,0.1-0.2,0.1-0.4L814.7,52.6z M814.2,59.3l-1.2-0.2c0,0.1,0,0.1,0.1,0.4c0.1,0.1,0.1,0.2,0.1,0.4c0.5-0.1,1.1-0.2,1.6-0.4
			L814.2,59.3z M813.2,63L813.2,63L813.2,63z M813.3,63L813.3,63c0.1,0.1,0.3,0.2,0.4,0.2L813.3,63z M816,63c-1.7,1.8-1.9,2-2.3,3
			c0,0-0.1,0.1-0.1,0.1c0.1,0,0.4,0.1,0.6,0.1l0.7,0.1v0.1L816,63z M813.7,63.1L813.7,63.1L813.7,63.1L813.7,63.1z M841.5,64.8
			L841.5,64.8c-0.4,0.1-0.6,0-0.6,0s-0.1,0.1-0.2,0.1h-0.4c-0.1,0-0.2,0-0.4-0.1v0.6l1,0.1L841.5,64.8c1,0.2,1.2,0.4,1.6,0.5
			c0.1-0.1,0.1-0.1,0.3-0.1c-0.2-0.2-0.3-0.4-0.5-0.5C842.5,64.8,841.8,64.9,841.5,64.8L841.5,64.8z M843,67.1l-1.4,0.7l-0.4-0.1
			v-0.1l-0.9,1.1l-0.4,1.2l2.4-0.4c0-0.1,0-0.3,0.1-0.4c0-0.1,0.1-0.4,0.1-0.6L843,67.1z M840.9,62.3h-0.4c0.1,0.1,0.2,0.3,0.4,0.4
			c0.1,0,0.2,0.1,0.3,0.1h0.2c0,0-0.1-0.1-0.1-0.1L840.9,62.3z"/>
		<path class="st0" d="M877.1,76.9c-14.5,0.1-18.7,0.1-21,0.1c-2.5,0-2.5-0.4-2.5-0.7l2.2-1.8V69c0-2.7,0.1-5.7,0.1-8.8V58
			c-0.1-0.1-0.3-0.5-0.3-0.6l-0.3-0.6l-0.6-14.1c-0.6-0.6-1.9-1.7-2.6-1.9v-0.3c1.5,0,3.2-0.1,4.4-0.1h1.2l1.2,0.5
			c5.1,0,13.2-0.1,17.1-0.5l0.4,0.2c0.3,0.2,0.6,0.3,1,0.4l-0.3,1.6l1.2,4.8c-1.6,0-2.7-0.4-3.4-2.8c-0.6-0.2-0.9-0.4-4-0.4h-8.1
			c-0.8,1.7-1.8,3.3-2.7,4.9l0.3,1.2c0.1,0.7,0.6,2.4,0.7,2.6c0,1.4-0.2,1.7-0.2,3.3c-2,0.6-2.3,0.7-2.6,1.9l-0.4,0.6
			c2.7,0.3,3.2,0.3,3.2,0.3c0.6-0.5,2.4-1.9,4.6-2.1h3.6l0.6-0.6l1.4-0.3c0.3,0,0.6-0.3,0.9-0.3c0,3.2,0.2,5.7,0.2,6.3v1.2
			c-1.9-0.6-2.6-2.1-2.7-3.2c-2.2,0.1-3.9,0.2-4.7,0.6l-3.7-0.2c0.1,1.2,0.3,6.9,0.3,10.3l-0.6,0.9c0.2,0.9,0.4,1.7,0.4,1.7l0.6,0.2
			c1.2,0.5,3.2,1,5.2,1.2c1.4-0.4,3.1-0.9,4.6-0.9l2.2-0.1l3.4-2.4l0.4-0.1l0.9-0.9l1.1-0.7h1.6c0,0.1,0.1,0.1,0.4,0.2l-1.2,3.3
			l-1.2,1.3c0,1.3-1,1.8-1.7,2.1L877.1,76.9z"/>
		<path class="st0" d="M915.6,70.7L915.6,70.7c-0.1,0-0.1,0.1-0.1,0.2l-0.4,1.2c-0.3,0-1,0.3-1.4,0.6l-0.6,0.5v-0.1
			c-0.2,0.2-0.4,0.3-0.8,0.4v-0.1c-0.3,0.4-0.8,0.8-1.1,1.2c-1.1,0.2-1.1,0.2-1.7,0.9c-3.2,1.1-3.2,1.1-3.5,1.4l-20,0.1v-2.8
			l1.1-0.1v0.1l1.1-1.7c0,0-0.1-0.1-0.1-0.2c-0.1-0.1-0.1-0.2-0.1-0.3c-0.1-0.2-0.2-0.7-0.2-1.4l0.3-0.2v-1.2c0-0.1-0.1-0.1-0.1-0.2
			v-4.4l-0.2-0.2V54c0.4-1.2,0.4-1.5,0.6-4.5c-0.1-0.1-0.1-0.2-0.1-0.4l0.4-1c0-0.6-0.1-1.9-0.1-2.3l-0.3-3.3l-0.3-0.7v0.1h-0.6
			v-2.1h3.2c0.6,0,1.2-0.1,1.8-0.1h1.7l0.8-0.3c0.8,0.3,0.8,0.3,1.7,0.3l1.1-0.3h6.1c0.1,0.1,1,0.5,1.4,0.5l2.4,0.9
			c0,0,0.1-0.1,0.2-0.1c0.1-0.1,0.4-0.1,0.5-0.1c1.2,0.4,1.8,0.7,2.2,0.9c0.1,0.1,0.2,0.1,0.3,0.1l0.6,0.2l1.5,1.7
			c0.2,0.1,0.6,0.6,0.6,0.6l2,1.5l1,1.9l0.5,0.8l0.9,0.8l0.6,1.2c0.1,0.8,0.2,1.5,0.3,2c0.1,0.3,0.1,0.8,0.1,0.9
			c0.1,0.6,0.1,1.2,0.1,1.5l0.1,0.1v1.8c0,0.2,0.1,0.4,0.1,0.6c0,0.3-0.1,0.6-0.1,0.9V61h-0.5c-0.1,0-0.1,0.1-0.2,0.1h-0.4v0.1
			c0,0.2,0.1,0.4,0.1,0.6v0.4l0.5,0.6v-0.1c0.1,0,0.4,0.3,0.4,0.3c0,1.1-0.1,1.4-0.2,1.8l-0.3,0.6c0,0.1-0.1,0.2-0.1,0.3V66
			l-0.9,1.2c0,0.7-0.2,1.4-0.4,1.7c-0.1,0.2-0.3,0.6-0.4,1.5L915.6,70.7z M889.5,49.6l-0.6-0.1v0.3c0.1,0.1,0.2,0.1,0.3,0.1
			c0,0,0.1,0.1,0.3,0V49.6z M890.4,48.9l-0.3,0.3v0.1l0.3-0.2V48.9z M890.5,66.4C890.5,66.4,890.5,66.4,890.5,66.4L890.5,66.4
			L890.5,66.4z M890.8,48.8h-0.3V49h0.3V48.8z M891.8,58.9l-0.7-0.2v-0.1c-0.1,0.1-0.1,0.1-0.1,0.4l0.1,1.2c0.1,0.3,0.1,0.6,0.1,0.9
			L891.8,58.9z M910.1,68.4c0-0.1,0.1-0.2,0.1-0.3l0.6-0.8l0.1-0.2c0-0.1,0.1-0.4,0.1-0.4l0.3-0.4v0.1l0.2-1l0.9-0.8
			c0-0.1,0-0.4,0.1-0.4v0.6c0,0.6,0,0.4,0.6-2.4l0.5-2.7l0.4-0.1v-3.5l-0.3-0.2l-0.4-1.9l-1.2-4c-0.5-0.7-1.2-1.8-1.4-2.4l-0.5-1
			v0.1c-0.2-0.1-0.4-0.3-1.1-1v0.1l-1.1-0.9l-0.4-0.3l-0.8-0.6v0.1c-0.7-0.4-1.5-0.9-1.7-0.9l-1.4-0.5c-0.3,0-0.9-0.1-0.9-0.2v0.1
			l-0.9-0.2l-0.4-0.3v0.1h-3.8c-0.8,0.3-2,0.9-2.2,1.2l-0.4,0.1v-0.1l-0.4,0.2l-0.3,0.2c0,1.7-0.1,4.9-0.1,6.8
			c-0.1,1.4-0.1,2.7-0.1,3.9c0.1,2.7,0.3,5.3,0.3,8c0,2.5-0.1,5-0.3,6.6v0.3c-0.1,0.6-0.1,1.2-0.1,1.5v0.9c-0.1,0.1-0.1,0.4-0.1,0.6
			l0.5,0.3c0,0.1,0.1,0.2,0.4,0.2l0.6,0.4c0,0,0.8,0.4,0.9,0.6v-0.1c0.6,0,2.1,0,2.4-0.1h1.4c0.1,0,0.1-0.1,0.2-0.1l1.3,0.1v0.1
			l0.7-0.7l0.6-0.2l0.7-0.3l0.9-0.5l1.1-0.2v0.1c1-0.9,1.4-1.3,1.6-1.4l0.3-0.1c0,0,0.1-0.1,0.2-0.2c0.4-0.2,0.9-0.6,0.9-1.2
			l1.1-0.1L910.1,68.4z M907.7,73.5c0.2-0.2,0.1-0.3,0-0.3v0.1h-0.1v0.1h0.1V73.5z M907.7,73.3L907.7,73.3L907.7,73.3L907.7,73.3z
			 M915,65.8l0.7-0.4v0.1c0-0.1,0.1-0.1,0.1-0.4c0-0.1-0.1-0.1-0.1-0.4l-0.6,0.8c-0.6,0.4-0.6,0.8-0.6,1.3c0,0.1-0.1,0.3-0.1,0.4
			v0.5l-0.4,0.2c0.2,0.1,0.3,0.1,0.5,0.1L915,65.8z M915.6,61.2c0-0.1,0.1-0.1,0.1-0.1h-0.1L915.6,61.2c-0.1,0.1-0.1,0.1-0.1,0.1
			c0.1,0.3,0.1,0.8,0.1,1.3l0.1,0.2c0.2-0.1,0.4-0.1,0.8-0.1L915.6,61.2z M916.8,59.8c-0.1,0.1-0.2,0.3-0.4,0.4
			c-0.1,0.1-0.3,0.4-0.6,0.7l-0.1,0.1l2.1-0.4c-0.1,0-0.2-0.1-0.3-0.1L916.8,59.8z M916.5,54.1L916.5,54.1L916.5,54.1V54V54.1
			l-0.1-0.1c-0.1,0-0.1-0.1-0.2-0.1l0.1,0.1V54h0.1l-0.1,0.1l-0.2,0.1v0.3h0.5V54.1z M916.4,54L916.4,54
			C916.3,54,916.4,54.1,916.4,54L916.4,54z M916.7,63L916.7,63c-0.1,0.2-0.2,0.4-0.3,0.6c0.1,0,0.4,0,0.5-0.1L916.7,63z M917.5,56.8
			L917.5,56.8L917.5,56.8L917.5,56.8z"/>
	</g>
	<g>
		<path class="st0" d="M600.2,142.3c-0.7-0.1-1.4-0.4-2.4-0.6c-2.4,0-3.3-1.5-4.8-1.5c-0.4,0-0.9,0.1-1.4,0.1l0.5,0.5
			c-0.5,0.2-1,0.3-1.3,0.4c-1.2,0.2-1.6,0.9-3,1.5l0.6,0.8c-0.5,0.2-1.3,0.6-2,0.6c-0.1,0-0.3,0-0.4-0.1c-0.7,0.1-1.1,0.3-1.9,0.3
			c-0.1,0-0.3,0-0.4-0.1c-0.6,0.5-1.4,0.3-2.1,0.4h-0.3c-0.3,0.1-0.6,0.1-0.6,0.2c-0.6-0.2-1-0.1-1.5-0.1c-0.1,0-0.2,0-0.2,0.1h0.3
			c-0.2,0.1-0.4,0.1-0.5,0.1c-0.2,0-0.4-0.1-0.5-0.1c-0.1,0-0.2,0.1-0.2,0.2c-1.6-1.2-4.8-1.8-5.7-2.1h-0.2c-0.9,0-1.9-0.9-2.8-0.9
			c-1.3,0-2.1-1.4-3.6-1.7l-0.4-0.8c-0.5-0.8-1.7-3.1-1.9-5.2V134c0-0.7-0.1-2.1-0.1-2.2c0-2.2,0.6-3,2.2-5.8c0.1-0.3,0.7-2,1.8-3
			c0.4-1.7,3-0.9,3-3.4c0-0.6-1.1-3.1-1.7-4.2c0,0,0.1-0.1,0.1-0.2c0-0.4-0.6-4.4-1.2-4.4c-0.1,0-0.1,0-0.1,0.1
			c1-2.4,0.8-3.2,1.5-4.3l0.4-0.7c0.2-1.2,1.1-1.5,2.8-2.5l0.4-0.2c1.1-0.4,1.9-0.8,3.7-0.9l1.4-0.1c0.4-0.1,1.4-0.1,1.5-0.3
			c0.3,0.1,0.5,0.1,0.8,0.1c0.2,0,0.4-0.1,0.6-0.1c0.2,0,0.5,0.1,0.9,0.1c0.1,0,0.4,0,0.4-0.1c0,0-0.1-0.1-0.3-0.1
			c1,0,1.6,0.6,2.2,0.6c0.9-0.1,1.4-0.6,3-0.6c2.2,0.3,3.7,1.3,4.5,1.4l0.4,0.2c0.4,0.2,0.4,0.5,0.5,0.8l0.1,0.4
			c-0.1,0.1-0.1,0.4-0.1,0.5c0,0.9,0.1,0.4,0.5,3.7c-0.1,0.9-0.3,1.6-0.3,2.2c0,0.1,0,0.4,0.1,0.5c0,0.3,0,0.5-0.1,0.9
			c0.1,0.6,0.1,1,0.2,1.5l-0.7,0.2c0.1-0.1,0.1-0.4,0.1-0.9c0-0.3,0-0.6-0.1-1.2c0-0.2-0.2-1.7-1.4-4l-0.4-0.5c-0.6-0.9-2.2-3-4.1-3
			l-0.2-0.4c-0.3-0.1-0.5-0.1-0.8-0.1c-0.4,0-0.8,0.1-1.6,0.1s-0.5-0.2-2.3-0.2c-0.4,0-2.7,0.9-4.2,0.9l-0.6,0.1
			c-0.1,0.5-0.6,0.7-1.1,1.2l-0.3,0.2c-0.6,0.5-1.4,0.7-1.5,4.1c0.1,0.4,0.4,3.1,0.6,3.7c1.3,5.1,1.5,5.8,4,8.5
			c1.6,0.3-1.2-0.4,6.6,7.3c0.7,1,1.9,1.6,2.8,2.4c1.7,1.1,1.9,1.8,2.4,2.6c1.1-0.4,1.6-3.3,1.8-3.8l0.1-0.8
			c0.1-0.1,0.1-0.3,0.1-0.5s-0.1-0.5-0.2-0.9c0.1-0.7-0.1-2.9,0.5-3.7c-0.5-1.2-0.7-1.7-0.9-2.4l-0.1-0.8l-0.4,0.1
			c0.5-1,1.5-0.9,2.4-0.9c0.1,0,2.5-0.1,2.7,0.1c0.1,0,0.2-0.1,0.4-0.1c0.6,0,1.2,1,1.2,3c-0.1,0.3-0.1,0.5-0.1,0.8
			c0,1,0.1,1.9,0.4,3.7c-0.1,1.4-0.2,2.3-0.4,2.8c-0.5,0.1-1,3.3-1.5,3.8l-0.1,0.1c-0.6,0.5-0.8,0.9-1.2,1.9l0.8,0.7l1.4,0.8h0.5
			c1.3,1,2.5,2,3,2.5c2.7,0,4.7,1.4,4.7,1.4c0.2-0.1,0.4-0.1,0.9-0.5c0.2,0.2,0.3,0.4,0.3,0.6c0,0.9-1,0.4-3,1.1
			c-0.6-0.4-1.5-0.7-2.7-1.2L600.2,142.3z M587.6,137.2c-0.1-0.1-0.2-0.1-0.2-0.3c0-0.1,0.1-0.1,0.4-0.2c-1.4-0.6-2.3-1.2-2.8-1.7
			l-0.3-0.1c-0.5-0.7-1.7-1.1-2.4-2.2c0,0.1,0,0.1-0.1,0.1c0.1,0.1-3.8-1.5-5.6-5c-0.5-0.9-2.8-3.2-2.8-4c0-0.2,0.1-0.4,0.2-0.8
			c-4,3.6-3.6,4.5-4.7,6.1l-0.1,0.6c-0.4,1.4-0.3,3.2-0.5,3.2c0.3,4,1.5,5.7,2.2,6.3l-0.1,0.1c0.6,0.5,1.2,0.8,1.7,1.2l0.6,0.4
			c0.6,0.4,2.7,1.3,3.5,1.3l1.2-0.4c0.2,0.2,0.6,0.2,1.3,0.2c0.8,0,1.7-0.6,2.3-0.6c0.8-0.1,5.5-1.1,6.8-3.7L587.6,137.2z
			 M571.8,109.5l-1.2-0.4l-1-0.1c0,0.1,0.1,0.4,0.1,0.6c0,0.1,0,0.4-0.1,0.6l2.2-0.2V109.5z M570.4,113.4l-0.5,0.1
			c0,0.2,0.2,0.4,0.4,0.9h0.7L570.4,113.4z M571.8,116.7l-0.6-0.3l-0.1,1.1h0.6L571.8,116.7z"/>
	</g>
	<g>
		<path class="st0" d="M656.7,125.5l0.4-1.4l2.3-2.5l0.5-3.7c0-0.1,0.1-0.2,0.1-0.3c-0.1-7.3-0.4-14.5-0.6-21.9v-1.1
			c-0.7-1.8-1.1-2.7-1.9-3.5l-0.1-1.9c3.9,0.1,5.3,0.1,6.5,0.1c1.3,0,2.4,0,5.9-0.1v1.5c-1.5,0.2-2.4,0.6-3,1l-0.2,0.1
			c-0.1,0.1-0.3,0.1-0.4,0.1c-0.1,0-0.1,0-0.3-0.1c-0.7,5-0.4,10.3-0.7,17.6l-0.5,0.9v5.8l1.2,5.2c0.4,0.4,0.9,0.9,1.4,1.2h6.3
			c1.4-0.6,2.7-1.1,3.4-1.4l1.5-0.5l1.5-1.4l2.9-1.3c-0.4,2.4-0.4,2.7-0.7,2.9l-0.2,0.8c0,0.1-0.1,0.4-0.1,0.6l-2.8,3.2H656.7z
			 M660.6,114.1v0.6l0.6-0.1L660.6,114.1z M661.2,104.1c0,0.1,0.1,0.4,0.1,0.4h2.2L661.2,104.1z M661.7,108.8c0.6,0,0.6-0.1,0.6-0.1
			c0-0.2-1-0.4-1.1-0.4L661.7,108.8z M662.7,101.7c-0.5-0.3-0.6-0.3-0.6-0.3l-0.1,0.6L662.7,101.7z M663.5,116.3
			c0.1-0.1,0.2-0.2,0.2-0.4l-0.8,0.9L663.5,116.3z"/>
		<path class="st0" d="M720.3,123.4c-0.6,0.4-1.2,0.6-1.5,1l-4.8,1.9h-1.5c-2.7,0-5.1,0.3-7.4,0.3l-0.4-0.7c-2.6-0.4-7.6-2-9.7-3.7
			l-5.4-6.9c-0.9-2.4-1.4-6.4-2.1-7.6v-4.2l0.8-1.6c0.9-2.4,2-3.8,3.2-7.1l1.7-1.8l1.5-0.6l3.2-2.6l0.6-0.3c3.6-1.5,4.1-0.9,4.8-1.7
			h8.5l1.9,0.8c0.2,0.1,1.7,0.3,2.1,0.6l1.9,0.8c0.6,0.3,1.2,0.6,1.6,0.7l2.8,2.7c1.9,0,2.4,2.1,3.2,4.3l0.6,1.6l0.8,0.2
			c0.3,0.1,0.5,0.1,0.8,0.1l0.9,2.1c0,3.9,0.1,7.3,0.2,11c-0.5-0.1-0.9-0.2-1.7-0.2h-1.2c-0.3,0-0.6,0-0.9-0.1l-0.4,1.4
			c0.6-0.1,1.4-0.4,1.9-0.6l1.2-0.3l-0.3,3.2c-2.1,2.8-4.5,6-6.6,6.8L720.3,123.4z M691.9,114.4c0.4-2.3,0.6-3,0.8-3.4
			c-0.8,0.6-2.4,2.4-2.4,3.3c0,0.1,0.1,0.1,0.5,0.1c0.3,0,0.6-0.1,1.1-0.4V114.4z M691.6,102.8c0,0-0.1,0-0.3-0.3l-0.2-0.2
			c-0.1,0-0.2,0.1-0.6,0.1l0.6,0.4H691.6z M692.9,104.9l-1.1,0.2c0.1,0,0.4,0.1,0.6,0.1h0.3c0.2,0.1,0.4,0.1,0.6,0.1L692.9,104.9z
			 M693.6,98.7l-0.5-0.8c-0.8,0.7-0.9,1.3-1.1,2.3h1.4L693.6,98.7z M694.2,95.1c0,0.1-0.1,0.1-0.1,0.2
			C694.1,95.2,694.2,95.2,694.2,95.1z M721.6,112.6c0-0.3,0.3-2,0.3-2.1l0.3-2c0-2.2-0.6-4.4-0.6-6.6c-0.7-1.7-1.6-3.9-2.2-5.5
			l-4.4-4.5c-3.5-1.2-3.5-1.4-6.6-2.4c-1.4,0.4-2.8,0.8-3.4,1.1l-1.3,0.6c-1.1,0.9-4.1,3-4.1,3.5l-1.1,1.6l-0.7-0.1l-0.9,3.7
			c-0.6,0.6-1.2,2.7-1.5,3c-0.5,3.2-1,4.5-1.2,6.5l0.6,0.5c0.4,1.8,0.6,2.7,0.9,3.5l0.6,2.7c0.5,0.9,1.4,1.6,2.4,2.7l1.8,1.9l1.2,1
			c1.2,0.6,1.1,0.6,1.1,0.6c0,0.1,3.1,0.6,3.9,1.6l0.1,0.3c0.1,0,0.5-0.1,0.6-0.1c4.2-1.2,8.8-2.4,10.6-6.2l1.2-0.2L721.6,112.6z
			 M697.2,95.2l-0.4-0.6c0,0.3,0,0.9,0.1,0.9l0.3,0.1V95.2z M723.6,105.5v0.4l0.9-0.4H723.6z M723.9,117.7c-0.1,0.2-0.1,0.4-0.1,0.6
			l0.4,0.5L723.9,117.7z M725,116.9l-0.7,0.2c-0.1,0-0.1,0.1-0.2,0.1c0.6,0.2,0.7,0.3,0.8,0.3L725,116.9z M724.3,108
			c0.1,0.1,0.1,0.2,0.1,0.3c0.4-0.3,1.2-0.9,1.6-1.1c-0.3,0-0.7,0.1-1,0.1L724.3,108z M725.1,110.9c0.2,0,0.6,0.1,0.8,0.2
			c0.1-0.4,0.3-0.6,0.4-0.9c-0.3-0.1-0.9-0.4-1.2-0.5V110.9z M726.2,103.2c-0.1,0.1-0.1,0.3-0.1,0.3l0.1,0.2V103.2z"/>
		<path class="st0" d="M770.3,125.2l-0.6-0.4h-2.7l-0.8-0.4c-0.6-0.7-0.8-1.1-0.9-1.4l-0.1-0.3c-0.1-0.1-0.3-0.4-0.3-0.4l-1.9-1.6
			l-0.2-0.7c-1.1-0.9-1.8-1.7-4.4-4.5c-0.2-0.2-1.1-1-1.2-1.2l-0.6-1l-2.4-2.4c-3-3-2.7-3.5-3.8-4.5l-0.7-0.2
			c-0.2-1.4-0.1,0.9-2.1-3.4c-0.9,0-2-1.7-2.1-2.2l-0.6-0.3l-0.6-1.7c-0.2-0.1-0.8-0.4-1.4-0.6c0.1-0.7,0.1-1.2,0.4-1.4l-1.1,0.3
			l0.4,0.3c0,1.2,0.3,1.4,0.3,3.2l-0.6,0.4v20l1,1.3c0.2,0.3,0.5,0.6,0.9,0.9l0.6,0.2c1.1,0.4,0.9,1.5,1.3,2.2h-10.7
			c0-1,0-1.1,0.1-1.2l3-2.8c0-7.8,0.4-16.6,0.4-23.8c0-0.6,0-2-0.1-2.9l-0.3-3.1l-0.2-0.2c-0.1-0.1-0.1-0.1-0.1-0.2l-1.1-1l-1.8-0.3
			V88c2.2,0,4.7,0.6,9.1,0.9l0.9,1.7l0.7,0.9l0.6,0.4l0.8,1l0.6,0.2l1.5,2.4c0,0.1-0.1,0.3-0.1,0.4v0.4c0.2-0.1,0.5-0.1,0.8-0.1
			l0.5,0.4l5.4,6.3c0.9,1,1.1,1.3,1.3,2c0.9,0.6,1.7,1.4,2.6,2l0.6,1.3c0.3,0.4,0.9,0.9,1.4,1.4l1.3,1.2c0,0.1-0.1,0.4-0.1,0.5v1.3
			c1.7,0.1,1.8,0.4,4.2,3.1l0.2,1.4c0.5,0,1,0,1.4-0.1c-0.1-0.1-0.5-0.3-0.6-0.4l-0.3-1v-3.6h3c0.1,0,0.2-0.1,0.2-0.1v9.9l1,0.9
			l0.9,0.2c0,1.7-0.2,1.2-0.2,1.9L770.3,125.2z M747.1,98.7h-0.3c-0.2,0-0.4,0-0.4,0.2l1.3-0.2H747.1z M747.1,96.4
			c0.1,0,0.2,0,0.4-0.1L747.1,96.4z M749.3,99.2l-1.3-0.6l-0.4,0.1l0.4,0.1l0.1,0.7h0.9l0.4,0.1c0.2,0.2,0.7,0.6,1.1,0.6L749.3,99.2
			z M751,103.6v0.6c0.4-0.2,0.4-0.1,0.6-0.4L751,103.6z M751.2,103.1c0,0.3,0,0.4,0.1,0.4L751.2,103.1z M753.5,105.4
			c-0.1-0.2-0.2-0.5-0.3-0.9c-0.1,0.3-0.3,0.5-0.3,0.6L753.5,105.4z M753.5,104.2c0.1,0,0.1,0,0.2-0.1c0-0.1-0.2-0.1-0.4-0.1
			C753.3,104.1,753.4,104.2,753.5,104.2z M754.5,103.9c-0.2,0.1-0.4,0.1-0.8,0.1c0.4,0.4,0.6,0.4,0.6,0.4L754.5,103.9z M757.7,108.5
			c0-0.1-0.3-0.2-0.3-0.4l-0.2-0.1h-0.5l0.5,0.5H757.7z M757.4,110.7l-0.3,0.3l0.6-0.2L757.4,110.7z M759.3,110.6l-1.5,0.2l1.2,0.1
			c0.3,0,0.5,0.1,0.9,0.1L759.3,110.6z M762.6,113l-1.4,0.2v0.4c0.1,0,0.4,0.2,0.4,0.2l0.7-0.2L762.6,113z M770.2,111
			c-0.5,0-1.8,0.2-2.1,0.2l-0.5-11.7l-0.2-0.2c-0.1-0.1-0.2-0.4-0.2-0.7v-0.4c-0.1-1.9-0.2-4.2-0.3-6v-0.4l-0.4-0.3
			c-0.1,0-0.8-0.4-1.2-0.7v-1.5c0.6,0,1.4,0,1.8-0.1l0.6,0.1c1.8,0,3.3,0.1,4,0.1h0.8l0.4,0.4c-0.1,0.4-0.6,1-0.9,1.3l-0.3,0.4
			c-0.3,8.6-0.6,11.7-0.6,14.5c0.2,0.4,0.4,0.8,0.4,1.9c-0.5,0.5-0.7,1.5-0.7,1.9l-0.3,1.3H770.2z M766.6,119.3c0,0,0.4,0,0.6-0.2
			C767.1,119.3,766.6,119.3,766.6,119.3z M767.4,118.5c0,0.1,0,0.1,0.1,0.2L767.4,118.5z M769.9,102.3c-0.2,0-0.3-0.1-0.4-0.1v0.6
			l0.4,0.1V102.3z M769.8,97.8c-0.1-0.1-0.1-0.1-0.1-0.3c0,0.1-0.1,0.1-0.1,0.2L769.8,97.8z"/>
		<path class="st0" d="M802.7,125.3c-14.5,0.1-18.7,0.1-21,0.1c-2.5,0-2.5-0.4-2.5-0.7l2.2-1.8v-5.4c0-2.7,0.1-5.7,0.1-8.8v-2.2
			c-0.1-0.1-0.3-0.5-0.3-0.6l-0.3-0.6L780.4,91c-0.6-0.6-1.9-1.7-2.6-1.9v-0.3c1.5,0,3.2-0.1,4.4-0.1h1.2l1.2,0.5
			c5.1,0,13.2-0.1,17.1-0.5l0.4,0.2c0.3,0.2,0.6,0.3,1,0.4l-0.3,1.6l1.2,4.8c-1.6,0-2.7-0.4-3.4-2.8c-0.6-0.2-0.9-0.4-4-0.4h-8.1
			c-0.8,1.7-1.8,3.3-2.7,4.9l0.3,1.2c0.1,0.7,0.6,2.4,0.7,2.6c0,1.4-0.2,1.7-0.2,3.3c-2,0.6-2.3,0.7-2.6,1.9l-0.4,0.6
			c2.7,0.3,3.2,0.3,3.2,0.3c0.6-0.5,2.4-1.9,4.6-2.1h3.6l0.6-0.6l1.4-0.3c0.3,0,0.6-0.3,0.9-0.3c0,3.2,0.2,5.7,0.2,6.3v1.2
			c-1.9-0.6-2.6-2.1-2.7-3.2c-2.2,0.1-3.9,0.2-4.7,0.6l-3.7-0.2c0.1,1.2,0.3,6.9,0.3,10.3l-0.6,0.9c0.2,0.9,0.4,1.7,0.4,1.7l0.6,0.2
			c1.2,0.5,3.2,1,5.2,1.2c1.4-0.4,3.1-0.9,4.6-0.9l2.2-0.1l3.4-2.4l0.4-0.1l0.9-0.9l1.1-0.7h1.6c0,0.1,0.1,0.1,0.4,0.2l-1.2,3.3
			l-1.2,1.3c0,1.3-1,1.8-1.7,2.1L802.7,125.3z"/>
	</g>
</g>
</svg>
